<svg width="79" height="103" viewBox="0 0 79 103" fill="none" xmlns="http://www.w3.org/2000/svg">
<path fill-rule="evenodd" clip-rule="evenodd" d="M0.43 21.9C4.93 15.78 9.64 9.75003 14.87 3.70003C15.5057 4.01615 16.1772 4.25453 16.87 4.41003C22.1026 6.05118 27.7331 5.89986 32.87 3.98003C35.0746 3.20928 37.169 2.15368 39.1 0.840027C42.65 3.23003 46.1 4.45003 51.52 5.24003C56.26 5.93003 63.52 3.73003 63.61 3.70003C63.7 3.67003 73.7 15.93 74.61 17.19C75.52 18.45 78.11 21.89 78.11 21.89C78.11 21.89 74.21 29.17 73.77 34.89C73.33 40.61 73.69 42.03 74.77 46.25C75.85 50.47 79.32 59.44 76.14 71.39C74.78 77.9 70.39 85.22 63.91 91.08C59.7846 94.6098 54.9385 97.1967 49.71 98.66C46.44 99.66 43.03 99.41 41 101.29L39.1 103C38.6004 102.15 37.8729 101.458 37 101C36.1157 100.44 35.1561 100.009 34.15 99.72C30.8099 99.2253 27.5382 98.3462 24.4 97.1C19.4 95.1 14.97 91.6 11.26 87.85C7.4 83.49 3.24 76.59 2 70C0.76 63.41 0.91 57.18 2.18 52.65C3.45 48.12 3.86 46.86 4.25 45.54C4.64 44.22 5.93 36.33 4.18 30.91C3.18159 27.8128 1.93072 24.8027 0.44 21.91" fill="#BDA250"/>
<path d="M34.66 92.97L36.68 92.93L37.5 95.94L38.23 92.9L40.25 92.86L40.32 97.83L39.06 97.86L39.01 94.06L38.09 97.88L36.95 97.9L35.93 94.13L35.98 97.92L34.73 97.94L34.66 92.97Z" fill="#000001"/>
<path d="M40.88 92.85L45.55 92.75L45.56 93.98L44 94.01L44.05 97.76L42.52 97.79L42.46 94.04L40.89 94.08L40.88 92.85Z" fill="#000001"/>
<path d="M66.17 19.23L73.55 23.54L69.39 27.49L70.71 35.76L60.29 29.34L65.76 28.99L66.17 28.96V19.23Z" stroke="black" stroke-width="0.72" stroke-linejoin="round"/>
<path fill-rule="evenodd" clip-rule="evenodd" d="M66.17 19.23L73.55 23.54L69.39 27.49L70.71 35.76L60.29 29.34L65.76 28.99L66.17 28.95V19.23Z" fill="#C1AD60"/>
<path d="M65.84 28.94L60.29 29.34L60.09 26.17C62.0983 26.8897 64.0255 27.8181 65.84 28.94V28.94Z" stroke="black" stroke-width="0.72" stroke-linejoin="round"/>
<path fill-rule="evenodd" clip-rule="evenodd" d="M65.84 28.94L60.29 29.34L60.09 26.17C62.0983 26.8897 64.0255 27.8181 65.84 28.94" fill="#AC8F30"/>
<path d="M12.34 19.23L4.96 23.54L9.12 27.49L7.8 35.76L18.22 29.34L12.75 28.99L12.34 28.96V19.23Z" stroke="black" stroke-width="0.72" stroke-linejoin="round"/>
<path fill-rule="evenodd" clip-rule="evenodd" d="M12.34 19.23L4.96 23.54L9.12 27.49L7.8 35.76L18.22 29.34L12.75 28.99L12.34 28.95V19.23Z" fill="#C1AD60"/>
<path d="M12.67 28.94L18.22 29.34L18.42 26.17C16.4117 26.8897 14.4845 27.8181 12.67 28.94V28.94Z" stroke="black" stroke-width="0.72" stroke-linejoin="round"/>
<path fill-rule="evenodd" clip-rule="evenodd" d="M12.67 28.94L18.22 29.34L18.42 26.17C16.4117 26.8897 14.4845 27.8181 12.67 28.94" fill="#AC8F30"/>
<path d="M66.17 78.89L73.55 74.58L69.39 70.62L70.71 62.36L60.29 68.77L65.76 69.13L66.17 69.16V78.89Z" stroke="black" stroke-width="0.72" stroke-linejoin="round"/>
<path fill-rule="evenodd" clip-rule="evenodd" d="M66.17 78.89L73.55 74.58L69.39 70.62L70.71 62.36L60.29 68.77L65.76 69.13L66.17 69.16V78.89Z" fill="#C1AD60"/>
<path d="M65.84 69.18L60.29 68.77L60.09 72C62.0985 71.2603 64.0254 70.3153 65.84 69.18Z" stroke="black" stroke-width="0.72" stroke-linejoin="round"/>
<path fill-rule="evenodd" clip-rule="evenodd" d="M65.84 69.18L60.29 68.77L60.09 72C62.0965 71.2762 64.0233 70.348 65.84 69.23" fill="#AC8F30"/>
<path d="M12.34 78.89L4.96 74.58L9.12 70.62L7.8 62.36L18.22 68.77L12.75 69.13L12.34 69.16V78.89Z" stroke="black" stroke-width="0.72" stroke-linejoin="round"/>
<path fill-rule="evenodd" clip-rule="evenodd" d="M12.34 78.89L4.96 74.58L9.12 70.62L7.8 62.36L18.22 68.77L12.75 69.13L12.34 69.16V78.89Z" fill="#C1AD60"/>
<path d="M29.24 25.22C25.2995 26.5246 21.7692 28.8379 19 31.93L22.15 31.61L21.63 34.42C24.07 32.3885 26.8002 30.7335 29.73 29.51L29.24 25.22Z" stroke="#231F20" stroke-width="0.34" stroke-linejoin="round"/>
<path fill-rule="evenodd" clip-rule="evenodd" d="M29.24 25.22C25.3006 26.5267 21.7707 28.8397 19 31.93L22.15 31.61L21.63 34.42C24.07 32.3885 26.8002 30.7335 29.73 29.51L29.24 25.22Z" fill="#0071BB"/>
<path d="M29.19 25.3L31.09 30.7L28.81 31.45L25.2 29.95L29.19 25.3Z" stroke="#231F20" stroke-width="0.34" stroke-linejoin="round"/>
<path fill-rule="evenodd" clip-rule="evenodd" d="M29.19 25.3L31.09 30.7L28.81 31.45L25.2 29.95L29.19 25.3Z" fill="#0071BB"/>
<path d="M49.94 25.16C53.8652 26.4784 57.3825 28.79 60.15 31.87L57 31.57L57.53 34.37C55.0849 32.3404 52.3517 30.6857 49.42 29.46L49.94 25.16Z" stroke="#231F20" stroke-width="0.34" stroke-linejoin="round"/>
<path fill-rule="evenodd" clip-rule="evenodd" d="M49.94 25.16C53.8652 26.4784 57.3825 28.79 60.15 31.87L57 31.57L57.53 34.37C55.0849 32.3404 52.3517 30.6857 49.42 29.46L49.94 25.16Z" fill="#0071BB"/>
<path d="M49.98 25.25L48.09 30.66L50.37 31.4L53.98 29.9L49.98 25.25Z" stroke="#231F20" stroke-width="0.34" stroke-linejoin="round"/>
<path fill-rule="evenodd" clip-rule="evenodd" d="M49.98 25.25L48.09 30.66L50.37 31.4L53.98 29.9L49.98 25.25Z" fill="#0071BB"/>
<path d="M25 29.43C34.43 24.71 44.31 24.37 54.13 29.51C53.7395 30.9561 52.9244 32.2519 51.79 33.23C43.26 28.37 35.18 28.55 27.46 33.23C26.2078 32.3021 25.334 30.9523 25 29.43V29.43Z" stroke="#231F20" stroke-width="0.34" stroke-linejoin="round"/>
<path fill-rule="evenodd" clip-rule="evenodd" d="M25 29.43C34.43 24.71 44.31 24.37 54.13 29.51C53.7395 30.9561 52.9244 32.2519 51.79 33.23C43.26 28.37 35.18 28.55 27.46 33.23C26.2078 32.3021 25.334 30.9523 25 29.43" fill="#0071BB"/>
<path fill-rule="evenodd" clip-rule="evenodd" d="M51.65 31.09L52.22 29.75L52.5 29.87L52 31L52.68 31.29L52.59 31.52L51.65 31.09ZM51.11 30.87L51.39 30.98L51.91 29.62L51.64 29.51L51.11 30.87ZM50.19 30.52V29L50.49 29.12V30.27L51.2 29.37L51.49 29.47L50.49 30.68L50.19 30.52ZM49.3 30.2L49.59 30.28L50 28.89L49.72 28.8L49.3 30.2ZM49 29.5L49.25 29.67C49.1804 29.7987 49.0668 29.8981 48.93 29.95C48.8014 30.0002 48.6586 30.0002 48.53 29.95C48.4431 29.9283 48.3617 29.8887 48.291 29.8335C48.2204 29.7784 48.1621 29.7091 48.12 29.63C48.0481 29.4468 48.0481 29.2432 48.12 29.06C48.1411 28.9584 48.1819 28.862 48.2403 28.7762C48.2986 28.6904 48.3733 28.6169 48.46 28.56C48.5399 28.5153 48.628 28.487 48.719 28.4767C48.81 28.4664 48.9021 28.4743 48.99 28.5C49.0692 28.518 49.1438 28.5522 49.2092 28.6004C49.2746 28.6485 49.3293 28.7097 49.37 28.78C49.4225 28.8709 49.4469 28.9753 49.44 29.08H49.14C49.1472 29.0093 49.1291 28.9382 49.0888 28.8796C49.0485 28.821 48.9887 28.7786 48.92 28.76C48.8751 28.7372 48.8254 28.7253 48.775 28.7253C48.7246 28.7253 48.6749 28.7372 48.63 28.76C48.5255 28.848 48.4519 28.9672 48.42 29.1C48.3701 29.2321 48.3701 29.3779 48.42 29.51C48.4397 29.5554 48.4699 29.5954 48.5082 29.6267C48.5464 29.658 48.5916 29.6797 48.64 29.69C48.6731 29.7046 48.7088 29.7122 48.745 29.7122C48.7812 29.7122 48.8169 29.7046 48.85 29.69C48.9161 29.6412 48.9679 29.5756 49 29.5ZM46.85 28.88L46.45 28.78L46.78 28.3L46.85 28.88ZM47.25 29.56L47 28L46.69 27.94L45.8 29.24L46.11 29.31L46.3 29.01L46.87 29.14L46.92 29.5L47.25 29.56ZM45.4 29.15L45.68 27.72L45.97 27.77L45.69 29.21L45.4 29.15ZM44.4 28.15H44.62C44.7062 28.1623 44.7938 28.1623 44.88 28.15C44.8992 28.149 44.918 28.144 44.9352 28.1354C44.9524 28.1268 44.9677 28.1148 44.98 28.1C44.9849 28.0669 44.9849 28.0332 44.98 28C44.9956 27.9615 44.9956 27.9185 44.98 27.88C44.9697 27.8605 44.9556 27.8433 44.9384 27.8296C44.9211 27.8158 44.9013 27.8057 44.88 27.8H44.67H44.44L44.4 28.15ZM43.97 28.95L44.2 27.5L44.82 27.59C44.9332 27.6066 45.044 27.6368 45.15 27.68C45.2148 27.719 45.2642 27.779 45.29 27.85C45.3195 27.9238 45.3195 28.0062 45.29 28.08C45.2807 28.1849 45.2304 28.282 45.15 28.35C45.0627 28.4114 44.9563 28.4398 44.85 28.43C44.9016 28.4722 44.9456 28.5229 44.98 28.58C45.0337 28.6627 45.0805 28.7497 45.12 28.84L45.25 29.15H44.89L44.74 28.8C44.7045 28.716 44.661 28.6356 44.61 28.56C44.5948 28.5272 44.5705 28.4995 44.54 28.48H44.39H44.33L44.23 29.08L43.97 28.95ZM43 27.25L43.17 26.95H43.48L43.18 27.22L43 27.25ZM43.29 28.25L43.13 27.69L42.9 28.22L43.29 28.25ZM43.78 28.87H43.46L43.37 28.52H42.78L42.63 28.84H42.31L43.01 27.43H43.33L43.78 28.87ZM41.89 28.72L41.98 27.26H42.28L42.19 28.72H41.89ZM41.37 28.15L41.66 28.24C41.6177 28.3812 41.5341 28.5066 41.42 28.6C41.3033 28.6725 41.1672 28.7075 41.03 28.7C40.9404 28.6995 40.852 28.6795 40.7709 28.6416C40.6897 28.6036 40.6178 28.5485 40.56 28.48C40.4318 28.323 40.3708 28.1218 40.39 27.92C40.3898 27.7141 40.4645 27.5151 40.6 27.36C40.6682 27.2967 40.7486 27.2481 40.8363 27.2171C40.9241 27.1862 41.0172 27.1735 41.11 27.18C41.2703 27.1866 41.4228 27.2505 41.54 27.36C41.6066 27.4368 41.6515 27.53 41.67 27.63L41.38 27.69C41.3655 27.619 41.3266 27.5553 41.27 27.51C41.2446 27.4862 41.2147 27.4678 41.1821 27.4558C41.1495 27.4437 41.1147 27.4384 41.08 27.44C41.0304 27.4352 40.9803 27.4417 40.9335 27.459C40.8868 27.4763 40.8445 27.504 40.81 27.54C40.7345 27.6526 40.6929 27.7845 40.69 27.92C40.6794 28.0593 40.7107 28.1986 40.78 28.32C40.8378 28.3852 40.9173 28.4272 41.0037 28.4382C41.0902 28.4493 41.1777 28.4286 41.25 28.38C41.2986 28.3091 41.3263 28.2259 41.33 28.14L41.37 28.15ZM39.84 27.15H40.13V28.61H39.8L39.84 27.15ZM38.66 27.42V28.42H38.88C38.9428 28.4315 39.0072 28.4315 39.07 28.42C39.1157 28.4144 39.1581 28.3932 39.19 28.36C39.2218 28.3218 39.2456 28.2776 39.26 28.23C39.272 28.1371 39.272 28.043 39.26 27.95C39.2736 27.8672 39.2736 27.7828 39.26 27.7C39.2469 27.6467 39.2195 27.598 39.1807 27.5593C39.142 27.5205 39.0933 27.4931 39.04 27.48H38.66V27.42ZM38.37 27.17H38.91C39.0025 27.1529 39.0974 27.1529 39.19 27.17C39.2698 27.1951 39.342 27.2398 39.4 27.3C39.4681 27.3671 39.5195 27.4494 39.55 27.54C39.5842 27.6501 39.6011 27.7648 39.6 27.88C39.6008 27.9887 39.5839 28.0968 39.55 28.2C39.5171 28.2977 39.4623 28.3866 39.39 28.46C39.3358 28.5158 39.2661 28.5541 39.19 28.57C39.1004 28.5822 39.0096 28.5822 38.92 28.57H38.37V27.17ZM36.78 27.31H37.08L37.13 28.1C37.1233 28.1799 37.1233 28.2602 37.13 28.34C37.1353 28.3694 37.1482 28.397 37.1675 28.4198C37.1869 28.4426 37.2119 28.4599 37.24 28.47C37.2647 28.494 37.2952 28.5112 37.3284 28.52C37.3617 28.5287 37.3967 28.5287 37.43 28.52C37.4997 28.5203 37.5671 28.4954 37.62 28.45C37.6392 28.4366 37.6548 28.4186 37.6653 28.3977C37.6758 28.3767 37.6808 28.3534 37.68 28.33V28.07L37.63 27.27H37.92L38 28C38 28.18 38 28.3 38 28.38C37.9881 28.4486 37.9607 28.5135 37.92 28.57C37.8757 28.6234 37.8213 28.6676 37.76 28.7C37.6693 28.7328 37.5755 28.7562 37.48 28.77C37.3708 28.7883 37.2592 28.7883 37.15 28.77C37.0865 28.7408 37.0288 28.7001 36.98 28.65C36.9355 28.6045 36.9014 28.55 36.88 28.49C36.8528 28.3717 36.836 28.2513 36.83 28.13L36.78 27.31ZM36.09 27.39H36.38L36.5 28.32C36.5186 28.4124 36.5186 28.5076 36.5 28.6C36.4834 28.6862 36.4374 28.7639 36.37 28.82C36.2922 28.8894 36.1939 28.9315 36.09 28.94C36.0302 28.9562 35.9675 28.9584 35.9068 28.9462C35.846 28.9341 35.7889 28.908 35.74 28.87C35.6432 28.7816 35.5827 28.6605 35.57 28.53L35.84 28.46C35.8517 28.5193 35.872 28.5765 35.9 28.63C35.9183 28.6541 35.943 28.6725 35.9713 28.6832C35.9996 28.6938 36.0304 28.6962 36.06 28.69C36.0864 28.6877 36.1119 28.6793 36.1345 28.6654C36.1571 28.6515 36.1761 28.6326 36.19 28.61C36.2077 28.531 36.2077 28.449 36.19 28.37L36.09 27.39ZM34.4 28.57L34 28.1L33.93 28.68L34.4 28.57ZM35.05 29.03L34.73 29.09L34.54 28.8L33.97 28.92V29.27L33.66 29.33L33.92 27.78L34.23 27.72L35.05 29.03ZM33.17 29.42L32.8 28L33.1 27.94L33.43 29.37L33.17 29.42ZM32.54 29.04C32.545 29.1306 32.5242 29.2208 32.48 29.3C32.4388 29.3648 32.3744 29.4113 32.3 29.43C32.2511 29.4484 32.1985 29.4553 32.1465 29.4501C32.0945 29.4449 32.0443 29.4277 32 29.4C31.8956 29.3094 31.8251 29.186 31.8 29.05C31.7488 28.9216 31.7488 28.7784 31.8 28.65C31.8206 28.6034 31.8524 28.5626 31.8925 28.5312C31.9326 28.4998 31.9798 28.4788 32.03 28.47C32.0978 28.4493 32.1709 28.4541 32.2354 28.4836C32.2999 28.5131 32.3513 28.5652 32.38 28.63L32.65 28.48C32.5987 28.3909 32.5267 28.3154 32.44 28.26C32.2916 28.2048 32.1284 28.2048 31.98 28.26C31.7973 28.3112 31.6403 28.4289 31.54 28.59C31.4632 28.7826 31.4632 28.9974 31.54 29.19C31.5814 29.385 31.6959 29.5568 31.86 29.67C31.9981 29.7473 32.1583 29.7756 32.3144 29.7501C32.4706 29.7247 32.6136 29.6471 32.72 29.53C32.8119 29.4176 32.8582 29.2749 32.85 29.13L32.54 29.04ZM30.75 28.49H30.92L31.11 28.12L30.8 28.21L30.75 28.49ZM31.17 30L30.77 28.59L31.05 28.5L31.45 29.92L31.17 30ZM30 30.37L31 30.05L30.93 29.81L30.23 30.04L29.86 28.89L29.58 28.99L30 30.37ZM28.48 30.15C28.52 30.2789 28.6053 30.389 28.72 30.46C28.7689 30.485 28.8224 30.4996 28.8772 30.503C28.932 30.5063 28.9869 30.4984 29.0385 30.4796C29.0901 30.4609 29.1373 30.4317 29.1771 30.3939C29.2169 30.3561 29.2485 30.3105 29.27 30.26C29.3142 30.1303 29.3142 29.9897 29.27 29.86C29.2263 29.7331 29.1419 29.6241 29.03 29.55C28.9795 29.528 28.9251 29.5166 28.87 29.5166C28.8149 29.5166 28.7605 29.528 28.71 29.55C28.6583 29.5684 28.6112 29.5976 28.5715 29.6355C28.5319 29.6734 28.5007 29.7192 28.48 29.77C28.4325 29.8916 28.4289 30.0261 28.47 30.15H28.48ZM28.2 30.26C28.1497 30.1398 28.1259 30.0102 28.13 29.88C28.1408 29.8012 28.1609 29.724 28.19 29.65C28.2225 29.5799 28.2665 29.5157 28.32 29.46C28.4043 29.3897 28.4987 29.3324 28.6 29.29C28.6886 29.2526 28.7838 29.2333 28.88 29.2333C28.9762 29.2333 29.0714 29.2526 29.16 29.29C29.3232 29.393 29.4485 29.5462 29.517 29.7265C29.5855 29.9069 29.5936 30.1047 29.54 30.29C29.5024 30.3776 29.4463 30.4561 29.3756 30.52C29.3048 30.5838 29.221 30.6316 29.13 30.66C29.0428 30.7025 28.947 30.7245 28.85 30.7245C28.753 30.7245 28.6572 30.7025 28.57 30.66C28.3965 30.5806 28.2604 30.4373 28.19 30.26H28.2ZM27.04 30.26L27.19 30.64L27.34 30.58C27.4145 30.5527 27.4851 30.5157 27.55 30.47C27.5805 30.4443 27.6017 30.4091 27.61 30.37C27.6154 30.3302 27.6154 30.2898 27.61 30.25C27.5876 30.2047 27.553 30.1666 27.51 30.14C27.4646 30.1248 27.4154 30.1248 27.37 30.14L27.17 30.21L27.04 30.26ZM27.24 31.5L26.67 30.14L27.1 29.97C27.2055 29.916 27.316 29.8725 27.43 29.84C27.5165 29.831 27.6036 29.8485 27.68 29.89C27.7663 29.9471 27.8354 30.0266 27.88 30.12C27.8927 30.1962 27.8927 30.2739 27.88 30.35C27.8648 30.4712 27.804 30.5821 27.71 30.66C27.64 30.66 27.56 30.74 27.43 30.79L27.26 30.87L27.47 31.38L27.24 31.5Z" fill="white"/>
<path d="M39.26 22.23C29.8592 22.1792 20.5984 24.5081 12.34 29V14.48C29.6212 7.58618 48.8888 7.58618 66.17 14.48V29C57.9152 24.5081 48.6576 22.1791 39.26 22.23V22.23Z" stroke="black" stroke-width="0.87" stroke-linejoin="round"/>
<path fill-rule="evenodd" clip-rule="evenodd" d="M39.26 22.23C29.8592 22.1792 20.5984 24.5081 12.34 29V14.48C29.6212 7.58618 48.8888 7.58618 66.17 14.48V29C57.9115 24.522 48.6542 22.2068 39.26 22.27" fill="#BDA250"/>
<path fill-rule="evenodd" clip-rule="evenodd" d="M58.13 20.64L57.38 17.38L56.63 20.17L58.13 20.64ZM58.57 22.64L56.18 21.89L55.84 23.18L53.68 22.5L56.25 14.88L58.56 15.6L61.12 24.83L58.91 24.14L58.57 22.64ZM50.63 13.53L52.79 13.96V22.39L50.63 21.95V13.53ZM47.63 17.99L49.53 18.93C49.4414 19.4738 49.2367 19.9923 48.93 20.45C48.6908 20.826 48.3417 21.1193 47.93 21.29C47.4289 21.4632 46.8917 21.5045 46.37 21.41C45.7051 21.3462 45.0645 21.127 44.5 20.77C43.9545 20.3637 43.5238 19.8227 43.25 19.2C42.8756 18.3715 42.6944 17.4688 42.72 16.56C42.6305 15.4497 42.9625 14.3464 43.65 13.47C43.9858 13.1301 44.402 12.8804 44.86 12.744C45.318 12.6077 45.8029 12.5891 46.27 12.69C47.049 12.7581 47.7837 13.0815 48.36 13.61C48.9178 14.2041 49.3078 14.9357 49.49 15.73L47.57 16C47.5324 15.7964 47.4615 15.6005 47.36 15.42C47.2518 15.2174 47.1019 15.0402 46.92 14.9C46.7459 14.773 46.5433 14.6906 46.33 14.66C46.1052 14.6209 45.8738 14.6541 45.669 14.7547C45.4642 14.8553 45.2965 15.0182 45.19 15.22C44.9625 15.7282 44.863 16.2844 44.9 16.84C44.8366 17.5259 44.9574 18.2164 45.25 18.84C45.354 19.0192 45.4987 19.1715 45.6724 19.2844C45.8461 19.3973 46.044 19.4677 46.25 19.49C46.4184 19.5268 46.5934 19.5194 46.7581 19.4686C46.9228 19.4178 47.0716 19.3252 47.19 19.2C47.4469 18.8478 47.6057 18.4337 47.65 18L47.63 17.99ZM40.26 10.25L41.95 10.3L40.39 11.98H39.46L40.26 10.25ZM39.21 12.45L41.4 12.51V20.9L39.21 20.83V12.45ZM32.54 12.73L34.72 12.58V18.9L38.12 18.67V20.74L32.54 21.11V12.73ZM26.2 17.88C26.1474 18.4971 26.2871 19.1154 26.6 19.65C26.7227 19.8101 26.8886 19.9318 27.0782 20.0009C27.2677 20.07 27.473 20.0836 27.67 20.04C27.892 20.0072 28.104 19.9256 28.2907 19.8011C28.4774 19.6766 28.6343 19.5123 28.75 19.32C29.0554 18.6998 29.19 18.0095 29.14 17.32C29.192 16.7346 29.0515 16.1483 28.74 15.65C28.6121 15.491 28.4421 15.371 28.2494 15.3039C28.0567 15.2367 27.849 15.225 27.65 15.27C27.4322 15.3074 27.2253 15.3922 27.0439 15.5184C26.8625 15.6445 26.7109 15.8089 26.6 16C26.314 16.5694 26.183 17.2039 26.22 17.84L26.2 17.88ZM24.04 18.22C23.9972 17.0208 24.3484 15.8406 25.04 14.86C25.3534 14.4304 25.7508 14.0688 26.208 13.7972C26.6652 13.5256 27.1728 13.3497 27.7 13.28C28.1712 13.163 28.6641 13.1658 29.134 13.2881C29.6038 13.4103 30.0356 13.6482 30.39 13.98C31.0996 14.8126 31.4581 15.8882 31.39 16.98C31.412 17.8252 31.2728 18.6669 30.98 19.46C30.722 20.1061 30.3101 20.6794 29.78 21.13C29.2042 21.5885 28.5112 21.8761 27.78 21.96C27.1138 22.1076 26.4191 22.059 25.78 21.82C25.23 21.5637 24.785 21.1259 24.52 20.58C24.1737 19.8293 24.0158 19.0055 24.06 18.18L24.04 18.22ZM19.5 18.9L20.03 18.75C20.3666 18.6823 20.672 18.5068 20.9 18.25C21.0622 18.0374 21.15 17.7774 21.15 17.51C21.1556 17.3988 21.139 17.2876 21.1012 17.1829C21.0635 17.0782 21.0053 16.982 20.93 16.9C20.78 16.76 20.51 16.74 20.11 16.85L19.5 17.01V18.9ZM17.37 15.9L20.91 14.9C21.1917 14.7842 21.4982 14.7419 21.8008 14.7769C22.1034 14.8118 22.3921 14.923 22.64 15.1C22.8527 15.3372 23.0133 15.6164 23.1115 15.9196C23.2097 16.2227 23.2432 16.5431 23.21 16.86C23.2321 17.6177 23.0228 18.3642 22.61 19C22.1375 19.6282 21.4569 20.0678 20.69 20.24L19.52 20.56V23.68L17.39 24.27L17.37 15.9Z" fill="black"/>
<path d="M47 38.71C47 38.71 46 39.13 44.21 38.11" stroke="#231F20" stroke-width="0.1" stroke-linecap="round" stroke-linejoin="round"/>
<path d="M44.2 38.11L43.63 39.26L42.65 38.09L41.76 39.01L40.98 38.47L40.51 39.01L39.8 38.47L39.57 39.01L39.02 38.42L38.53 39.01L38.04 38.4L37.22 39.34L36.55 38.42L35.63 39.47L34.3 38.69" stroke="#231F20" stroke-width="0.1" stroke-linecap="round" stroke-linejoin="round"/>
<path d="M34.3 38.69C33.7563 38.808 33.1937 38.808 32.65 38.69" stroke="#231F20" stroke-width="0.1" stroke-linecap="round" stroke-linejoin="round"/>
<path fill-rule="evenodd" clip-rule="evenodd" d="M55.33 36.91L57.96 37.62C58.43 37.75 57.51 38.19 56.65 38.04C56.05 38.84 55.05 38.35 54.58 38.53C53.8902 38.7005 53.1747 38.7412 52.47 38.65C51.7929 38.903 51.0471 38.903 50.37 38.65C49.9081 38.7316 49.4378 38.7551 48.97 38.72C48.28 38.8873 47.5573 38.8631 46.88 38.65C46.429 38.752 45.9616 38.7575 45.5083 38.6662C45.0551 38.5748 44.6263 38.3887 44.25 38.12L43.69 39.29L42.69 38.12L41.69 39.02L41 38.51L40.46 39.05L39.81 38.45L39.63 39.14L39 38.5L38.47 39.06L38.06 38.45L37.23 39.36L36.52 38.45L35.52 39.45L34.27 38.69H32.86C32.1293 38.7719 31.3902 38.7381 30.67 38.59C29.67 38.39 29.88 38.92 29.28 38.51C28.9364 38.6727 28.5632 38.7637 28.1832 38.7774C27.8033 38.7912 27.4245 38.7274 27.07 38.59C26.69 38.48 25.78 38.97 25.07 38.39C24.35 38.47 23.45 38.59 22.99 38.02C22.24 38.02 22.07 38.02 21.6 37.56C22.5501 37.6199 23.499 37.4267 24.35 37C21.94 38.43 19.35 37.13 19.9 37.13C20.45 37.13 24.36 35.78 25.39 35.5C26.42 35.22 31.09 33.63 31.09 33.63C31.09 33.63 32.89 32.53 33.88 32.93C34.87 33.33 33.8 32.51 35.83 34.11C37.86 35.71 38.18 33.74 38.18 33.72C38.18 33.27 38.25 33.25 37.76 32.79C37.5779 32.57 37.3293 32.4151 37.0517 32.3484C36.774 32.2816 36.4822 32.3068 36.22 32.42C35.88 30.97 38.81 31.31 38.59 31C38.37 30.69 38.71 30.44 40.23 30.48C41.75 30.52 41.41 32.2 41.41 32.2L41.82 31.85L41.45 33.74C41.45 33.74 41.79 35.74 43.82 34.11C45.85 32.48 44.82 33.33 45.76 32.93C46.7 32.53 48.55 33.63 48.55 33.63C48.55 33.63 53.23 35.22 54.25 35.5C55.27 35.78 59.17 37.13 59.74 37.13C60.31 37.13 58.74 37.87 57.28 37.51C56.6193 37.3466 55.9683 37.1463 55.33 36.91V36.91Z" fill="#ED1C24"/>
<path d="M55.33 36.91L57.96 37.62C58.43 37.75 57.51 38.19 56.65 38.04C56.05 38.84 55.05 38.35 54.58 38.53C53.8902 38.7005 53.1747 38.7412 52.47 38.65C51.7929 38.903 51.0471 38.903 50.37 38.65C49.9081 38.7316 49.4378 38.7551 48.97 38.72C48.28 38.8873 47.5573 38.8631 46.88 38.65C46.429 38.752 45.9616 38.7575 45.5083 38.6662C45.0551 38.5748 44.6263 38.3887 44.25 38.12L43.69 39.29L42.69 38.12L41.69 39.02L41 38.51L40.46 39.05L39.81 38.45L39.63 39.14L39 38.5L38.47 39.06L38.06 38.45L37.23 39.36L36.52 38.45L35.52 39.45L34.27 38.69H32.86C32.1293 38.7719 31.3902 38.7381 30.67 38.59C29.67 38.39 29.88 38.92 29.28 38.51C28.9364 38.6727 28.5632 38.7637 28.1832 38.7774C27.8033 38.7912 27.4245 38.7274 27.07 38.59C26.69 38.48 25.78 38.97 25.07 38.39C24.35 38.47 23.45 38.59 22.99 38.02C22.24 38.02 22.07 38.02 21.6 37.56C22.5501 37.6199 23.499 37.4267 24.35 37C21.94 38.43 19.35 37.13 19.9 37.13C20.45 37.13 24.36 35.78 25.39 35.5C26.42 35.22 31.09 33.63 31.09 33.63C31.09 33.63 32.89 32.53 33.88 32.93C34.87 33.33 33.8 32.51 35.83 34.11C37.86 35.71 38.18 33.74 38.18 33.72C38.18 33.27 38.25 33.25 37.76 32.79C37.5779 32.57 37.3293 32.4151 37.0517 32.3484C36.774 32.2816 36.4822 32.3068 36.22 32.42C35.88 30.97 38.81 31.31 38.59 31C38.37 30.69 38.71 30.44 40.23 30.48C41.75 30.52 41.41 32.2 41.41 32.2L41.82 31.85L41.45 33.74C41.45 33.74 41.79 35.74 43.82 34.11C45.85 32.48 44.82 33.33 45.76 32.93C46.7 32.53 48.55 33.63 48.55 33.63C48.55 33.63 53.23 35.22 54.25 35.5C55.27 35.78 59.17 37.13 59.74 37.13C60.31 37.13 58.74 37.87 57.28 37.51C56.6193 37.3466 55.9683 37.1463 55.33 36.91V36.91Z" stroke="#231F20" stroke-width="0.15" stroke-linejoin="round"/>
<path d="M46.64 37.79C46.64 37.79 46.49 39.1 44.46 37.5" stroke="#231F20" stroke-width="0.1" stroke-linecap="round" stroke-linejoin="round"/>
<path d="M48.07 37.65C48.07 37.65 48.07 39.18 45.59 36.96" stroke="#231F20" stroke-width="0.1" stroke-linecap="round" stroke-linejoin="round"/>
<path d="M49.7 37.53C49.7 37.53 49.48 38.96 46.9 36.76" stroke="#231F20" stroke-width="0.1" stroke-linecap="round" stroke-linejoin="round"/>
<path d="M51.64 37.39C51.64 37.39 50.64 38.63 48.38 36.61" stroke="#231F20" stroke-width="0.1" stroke-linecap="round" stroke-linejoin="round"/>
<path d="M53.44 37.19C53.44 37.19 52.75 38.25 49.96 36.58" stroke="#231F20" stroke-width="0.1" stroke-linecap="round" stroke-linejoin="round"/>
<path d="M54.62 36.9C54.62 36.9 54.05 37.96 51.27 36.32" stroke="#231F20" stroke-width="0.1" stroke-linecap="round" stroke-linejoin="round"/>
<path d="M56.13 36.06C56.13 36.06 56.13 38.16 51.88 35.84" stroke="#231F20" stroke-width="0.1" stroke-linecap="round" stroke-linejoin="round"/>
<path d="M48.9 38.65C47.9297 38.9267 46.8899 38.8155 46 38.34" stroke="#231F20" stroke-width="0.1" stroke-linecap="round" stroke-linejoin="round"/>
<path d="M50.34 38.6C50.34 38.6 49.67 39.1 47.34 38.16" stroke="#231F20" stroke-width="0.1" stroke-linecap="round" stroke-linejoin="round"/>
<path d="M52.51 38.6C52.51 38.6 51.62 39.48 49.24 37.99" stroke="#231F20" stroke-width="0.1" stroke-linecap="round" stroke-linejoin="round"/>
<path d="M54.53 38.42C54.53 38.42 53.47 39.48 50.76 37.73" stroke="#231F20" stroke-width="0.1" stroke-linecap="round" stroke-linejoin="round"/>
<path d="M56.68 38.08C56.68 38.08 55.87 39.4 52.21 37.5" stroke="#231F20" stroke-width="0.1" stroke-linecap="round" stroke-linejoin="round"/>
<path d="M58 37.62C58 37.62 57.55 38.79 54 37.24" stroke="#231F20" stroke-width="0.1" stroke-linecap="round" stroke-linejoin="round"/>
<path d="M33 37.79C33 37.79 33.15 39.1 35.18 37.5" stroke="#231F20" stroke-width="0.1" stroke-linecap="round" stroke-linejoin="round"/>
<path d="M31.57 37.65C31.57 37.65 31.57 39.18 34.06 36.96" stroke="#231F20" stroke-width="0.1" stroke-linecap="round" stroke-linejoin="round"/>
<path d="M29.94 37.53C29.94 37.53 30.16 38.96 32.74 36.76" stroke="#231F20" stroke-width="0.1" stroke-linecap="round" stroke-linejoin="round"/>
<path d="M28 37.39C28 37.39 29 38.63 31.26 36.61" stroke="#231F20" stroke-width="0.1" stroke-linecap="round" stroke-linejoin="round"/>
<path d="M26.2 37.19C26.2 37.19 26.89 38.25 29.68 36.58" stroke="#231F20" stroke-width="0.1" stroke-linecap="round" stroke-linejoin="round"/>
<path d="M25 36.9C25 36.9 25.57 37.96 28.35 36.32" stroke="#231F20" stroke-width="0.1" stroke-linecap="round" stroke-linejoin="round"/>
<path d="M23.51 36.06C23.51 36.06 23.51 38.16 27.76 35.84" stroke="#231F20" stroke-width="0.1" stroke-linecap="round" stroke-linejoin="round"/>
<path d="M30.74 38.65C31.7257 38.9404 32.7862 38.8289 33.69 38.34" stroke="#231F20" stroke-width="0.1" stroke-linecap="round" stroke-linejoin="round"/>
<path d="M29.31 38.6C29.31 38.6 29.98 39.1 32.31 38.16" stroke="#231F20" stroke-width="0.1" stroke-linecap="round" stroke-linejoin="round"/>
<path d="M27.14 38.6C27.14 38.6 28.02 39.48 30.4 37.99" stroke="#231F20" stroke-width="0.1" stroke-linecap="round" stroke-linejoin="round"/>
<path d="M25.11 38.42C25.11 38.42 26.18 39.48 28.89 37.73" stroke="#231F20" stroke-width="0.1" stroke-linecap="round" stroke-linejoin="round"/>
<path d="M23 38.08C23 38.08 23.81 39.4 27.47 37.5" stroke="#231F20" stroke-width="0.1" stroke-linecap="round" stroke-linejoin="round"/>
<path d="M21.64 37.62C21.64 37.62 22.1 38.79 25.64 37.24" stroke="#231F20" stroke-width="0.1" stroke-linecap="round" stroke-linejoin="round"/>
<path fill-rule="evenodd" clip-rule="evenodd" d="M38.86 31.08C39.131 30.87 39.458 30.7447 39.8 30.72L39.57 31.12C39.4721 31.037 39.3498 30.9882 39.2217 30.981C39.0936 30.9738 38.9666 31.0085 38.86 31.08V31.08Z" fill="#231F20"/>
<path d="M38.86 31.08C39.131 30.87 39.458 30.7447 39.8 30.72L39.57 31.12C39.4721 31.037 39.3498 30.9882 39.2217 30.981C39.0936 30.9738 38.9666 31.0085 38.86 31.08V31.08Z" stroke="#231F20" stroke-width="0.02" stroke-miterlimit="22.93"/>
<path fill-rule="evenodd" clip-rule="evenodd" d="M36.22 32.33C36.2931 32.183 36.4215 32.0709 36.5771 32.0184C36.7327 31.9659 36.9028 31.9773 37.05 32.05C36.7616 32.104 36.4822 32.1983 36.22 32.33" fill="#231F20"/>
<path fill-rule="evenodd" clip-rule="evenodd" d="M33.59 33.61C33.1618 33.6607 32.7281 33.5878 32.34 33.4C32.6796 33.1475 33.0977 33.0235 33.52 33.05C33.2027 33.0869 32.8982 33.1964 32.63 33.37C32.9315 33.5489 33.2801 33.6326 33.63 33.61" fill="#231F20"/>
<path fill-rule="evenodd" clip-rule="evenodd" d="M46 33.61C46.4282 33.6624 46.8624 33.5894 47.25 33.4C46.9147 33.1466 46.4994 33.0224 46.08 33.05C46.3973 33.0869 46.7018 33.1964 46.97 33.37C46.6682 33.5483 46.3198 33.6319 45.97 33.61" fill="#231F20"/>
<path d="M34.78 42L44.72 41.61V40.75C44.72 40.5 44.59 40.26 45 40.19C45.41 40.12 44.84 39.63 45.25 39.66C45.66 39.69 45.76 39.66 45.4 39.23C45.4 39.17 45.4 38.79 45.4 38.54C45.4 38.29 45.25 38.27 45.13 38.4L44.86 38.62C44.8397 38.6489 44.8127 38.6724 44.7814 38.6887C44.7501 38.705 44.7153 38.7135 44.68 38.7135C44.6447 38.7135 44.6099 38.705 44.5786 38.6887C44.5472 38.6724 44.5203 38.6489 44.5 38.62C44.39 38.38 44.26 38.23 44.15 37.99C44.04 37.75 43.81 37.67 43.64 37.99L43.47 38.27C43.4424 38.3155 43.4035 38.3532 43.357 38.3793C43.3106 38.4054 43.2583 38.4191 43.205 38.4191C43.1517 38.4191 43.0994 38.4054 43.053 38.3793C43.0065 38.3532 42.9676 38.3155 42.94 38.27C42.73 38.05 42.02 37.02 41.94 37.75C41.94 38.07 41.77 38.19 41.57 38.18L40.81 37.58C40.51 37.34 40.35 37.45 40.41 37.8C40.47 38.15 40.41 38.8 39.98 38.21L39.53 37.5C39.35 37.75 39.26 38.02 39.09 38.23C38.92 38.44 38.7 38.5 38.65 38.23V37.8C38.65 37.48 38.51 37.43 38.18 37.66L37.7 38C37.27 38.29 37.18 38.34 37.12 37.94C37.06 37.54 36.9 37.39 36.57 37.8L36.16 38.26C35.69 38.74 35.58 38.26 35.32 37.95C35.06 37.64 34.98 37.82 34.86 38.05L34.66 38.5C34.52 38.78 34.39 38.99 34.14 38.66C33.89 38.33 33.61 38.24 33.64 38.66V39.23C33.64 39.35 33.58 39.44 33.55 39.57C33.52 39.7 33.82 39.65 33.91 39.68C34 39.71 33.63 40.12 33.91 40.16C34.19 40.2 34.15 40.04 34.28 40.16L34.78 42Z" stroke="#231F20" stroke-width="0.25" stroke-linejoin="round"/>
<path fill-rule="evenodd" clip-rule="evenodd" d="M34.78 42L44.72 41.61V40.75C44.72 40.5 44.59 40.26 45 40.19C45.41 40.12 44.84 39.63 45.25 39.66C45.66 39.69 45.76 39.66 45.4 39.23C45.4 39.17 45.4 38.79 45.4 38.54C45.4 38.29 45.25 38.27 45.13 38.4L44.86 38.62C44.8397 38.6489 44.8127 38.6724 44.7814 38.6887C44.7501 38.705 44.7153 38.7135 44.68 38.7135C44.6447 38.7135 44.6099 38.705 44.5786 38.6887C44.5472 38.6724 44.5203 38.6489 44.5 38.62C44.39 38.38 44.26 38.23 44.15 37.99C44.04 37.75 43.81 37.67 43.64 37.99L43.47 38.27C43.4424 38.3155 43.4035 38.3532 43.357 38.3793C43.3106 38.4054 43.2583 38.4191 43.205 38.4191C43.1517 38.4191 43.0994 38.4054 43.053 38.3793C43.0065 38.3532 42.9676 38.3155 42.94 38.27C42.73 38.05 42.02 37.02 41.94 37.75C41.94 38.07 41.77 38.19 41.57 38.18L40.81 37.58C40.51 37.34 40.35 37.45 40.41 37.8C40.47 38.15 40.41 38.8 39.98 38.21L39.53 37.5C39.35 37.75 39.26 38.02 39.09 38.23C38.92 38.44 38.7 38.5 38.65 38.23V37.8C38.65 37.48 38.51 37.43 38.18 37.66L37.7 38C37.27 38.29 37.18 38.34 37.12 37.94C37.06 37.54 36.9 37.39 36.57 37.8L36.16 38.26C35.69 38.74 35.58 38.26 35.32 37.95C35.06 37.64 34.98 37.82 34.86 38.05L34.66 38.5C34.52 38.78 34.39 38.99 34.14 38.66C33.89 38.33 33.61 38.24 33.64 38.66V39.23C33.64 39.35 33.58 39.44 33.55 39.57C33.52 39.7 33.82 39.65 33.91 39.68C34 39.71 33.63 40.12 33.91 40.16C34.19 40.2 34.15 40.04 34.28 40.16L34.78 42Z" fill="#ED1C24"/>
<path d="M37.3 41.71L37.5 41.3L37.2 40.64L37.43 39.97V39.21L38.53 39.07L39.07 38.74L39.43 38.84L39.97 38.71L40.3 39.04L41.33 39.15L41.6 39.97L41.93 40.41L41.66 41.17L41.7 41.74L37.3 41.71Z" stroke="#231F20" stroke-width="0.25" stroke-linejoin="round"/>
<path fill-rule="evenodd" clip-rule="evenodd" d="M37.3 41.71L37.5 41.3L37.2 40.64L37.43 39.97V39.21L38.53 39.07L39.07 38.74L39.43 38.84L39.97 38.71L40.3 39.04L41.33 39.15L41.6 39.97L41.93 40.41L41.66 41.17L41.7 41.74L37.3 41.71Z" fill="#BDA250"/>
<path d="M35.87 39.32L35.8 40.01L38.09 40.39L38.27 39.66L35.87 39.32Z" stroke="#231F20" stroke-width="0.19" stroke-miterlimit="22.93"/>
<path fill-rule="evenodd" clip-rule="evenodd" d="M35.87 39.32L35.8 40.01L38.09 40.38L38.27 39.66L35.87 39.32Z" fill="#FFF200"/>
<path d="M43.21 39.35L43.27 40.04L40.99 40.41L40.8 39.69L43.21 39.35Z" stroke="#231F20" stroke-width="0.19" stroke-miterlimit="22.93"/>
<path fill-rule="evenodd" clip-rule="evenodd" d="M43.21 39.35L43.27 40.04L40.99 40.41L40.8 39.69L43.21 39.35Z" fill="#FFF200"/>
<path d="M35.76 40.31L35.69 41L37.73 41.27L37.78 40.55L35.76 40.31Z" stroke="#231F20" stroke-width="0.19" stroke-miterlimit="22.93"/>
<path fill-rule="evenodd" clip-rule="evenodd" d="M35.76 40.31L35.69 41L37.73 41.27L37.78 40.55L35.76 40.31Z" fill="#FFF200"/>
<path d="M43.32 40.34L43.39 41.03L41.35 41.3L41.3 40.58L43.32 40.34Z" stroke="#231F20" stroke-width="0.19" stroke-miterlimit="22.93"/>
<path fill-rule="evenodd" clip-rule="evenodd" d="M43.32 40.34L43.39 41.03L41.35 41.3L41.3 40.58L43.32 40.34Z" fill="#FFF200"/>
<path d="M12.67 69.18L18.22 68.77L18.42 71.95C16.4135 71.2262 14.4867 70.298 12.67 69.18V69.18Z" stroke="black" stroke-width="0.72" stroke-linejoin="round"/>
<path fill-rule="evenodd" clip-rule="evenodd" d="M12.67 69.18L18.22 68.77L18.42 71.95C16.4135 71.2262 14.4867 70.298 12.67 69.18" fill="#AC8F30"/>
<path d="M48.84 56.28C50.1149 53.4783 51.0095 50.5188 51.5 47.48L53.19 50L55.19 48.86C55.1011 51.1258 54.4369 53.3317 53.26 55.27L48.84 56.28Z" stroke="#231F20" stroke-width="0.33" stroke-linejoin="round"/>
<path fill-rule="evenodd" clip-rule="evenodd" d="M48.84 56.28C50.1149 53.4783 51.0095 50.5188 51.5 47.48L53.19 50L55.19 48.86C55.1011 51.1258 54.4369 53.3317 53.26 55.27L48.84 56.28Z" fill="#ED1C24"/>
<path d="M46.92 65.39L45.1 63.15L46.23 60.85" stroke="#231F20" stroke-width="0.19" stroke-miterlimit="22.93"/>
<path d="M48.87 56.28L50 57.36C50.8611 56.1688 51.6492 54.9265 52.36 53.64C52.36 53.64 48.79 56.19 48.87 56.28Z" stroke="#231F20" stroke-width="0.33" stroke-linejoin="round"/>
<path fill-rule="evenodd" clip-rule="evenodd" d="M48.87 56.28L50 57.36C50.8611 56.1688 51.6492 54.9265 52.36 53.64C52.36 53.64 48.84 56.19 48.92 56.28" fill="#ED1C24"/>
<path d="M30.21 56.28C28.9195 53.4826 28.0178 50.5218 27.53 47.48L25.85 50L23.85 48.86C23.9389 51.1258 24.6031 53.3317 25.78 55.27L30.21 56.28Z" stroke="#231F20" stroke-width="0.33" stroke-linejoin="round"/>
<path fill-rule="evenodd" clip-rule="evenodd" d="M30.21 56.28C28.9195 53.4826 28.0178 50.5218 27.53 47.48L25.85 50L23.85 48.86C23.9389 51.1258 24.6031 53.3317 25.78 55.27L30.21 56.28Z" fill="#ED1C24"/>
<path d="M30.28 56.28L29.2 57.36C28.3424 56.1665 27.5544 54.9244 26.84 53.64C26.84 53.64 30.36 56.19 30.28 56.28Z" stroke="#231F20" stroke-width="0.33" stroke-linejoin="round"/>
<path fill-rule="evenodd" clip-rule="evenodd" d="M30.28 56.28L29.2 57.36C28.3424 56.1665 27.5544 54.9244 26.84 53.64C26.84 53.64 30.36 56.19 30.28 56.28Z" fill="#ED1C24"/>
<path d="M32.92 60.85C30.3155 59.0346 28.2439 56.5556 26.92 53.67L23 55.11C24.6822 59.5579 27.9576 63.2218 32.19 65.39L34.02 63.15L32.92 60.85Z" stroke="#231F20" stroke-width="0.33" stroke-linejoin="round"/>
<path fill-rule="evenodd" clip-rule="evenodd" d="M32.92 60.85C30.3155 59.0346 28.2439 56.5556 26.92 53.67L23 55.11C24.6822 59.5579 27.9576 63.2218 32.19 65.39L34.02 63.15L32.92 60.85Z" fill="#ED1C24"/>
<path d="M32.22 65.39L34.05 63.15L32.92 60.85" stroke="#231F20" stroke-width="0.19" stroke-miterlimit="22.93"/>
<path d="M33.76 64.11L32.32 65.57L30.32 62.53L33.76 64.11Z" stroke="#231F20" stroke-width="0.33" stroke-linejoin="round"/>
<path fill-rule="evenodd" clip-rule="evenodd" d="M33.76 64.11L32.32 65.57L30.32 62.53L33.76 64.11Z" fill="#ED1C24"/>
<path d="M45.1 40.08L47.89 42.24L47.22 43.71V53.18C47.27 62.7 32.52 63.09 32.52 53.18V43.65L31.9 42.27L34.78 40.05L36.41 41.37H43.41L45.1 40.08Z" stroke="#231F20" stroke-width="0.24" stroke-miterlimit="22.93"/>
<path fill-rule="evenodd" clip-rule="evenodd" d="M45.1 40.08L47.89 42.24L47.22 43.71V53.18C47.27 62.7 32.52 63.09 32.52 53.18V43.65L31.9 42.27L34.78 40.05L36.41 41.37H43.41L45.1 40.08Z" fill="#0071BB"/>
<path fill-rule="evenodd" clip-rule="evenodd" d="M33.36 47.16C33.7711 47.2202 34.1889 47.2202 34.6 47.16C34.8709 47.2612 35.1691 47.2612 35.44 47.16C35.6471 47.2356 35.8617 47.2892 36.08 47.32H36.72C37.07 47.32 37.25 47.18 37.27 46.95L37.22 46.5C37.3472 46.364 37.4398 46.1994 37.49 46.02C37.5321 45.9291 37.5539 45.8302 37.5539 45.73C37.5539 45.6298 37.5321 45.5309 37.49 45.44L37.58 45.07L37.66 45.37L37.8 45.75C37.91 45.75 37.94 45.94 37.96 46.1C37.9848 46.3325 38.0491 46.5591 38.15 46.77C38.5279 46.8815 38.8473 47.1363 39.04 47.48L45.35 47.58L46.58 47.72C46.4935 48.3126 46.2784 48.8792 45.95 49.38C45.8555 49.6323 45.8346 49.9063 45.89 50.17C45.9257 50.3718 45.9257 50.5782 45.89 50.78C45.8187 51.1229 45.8794 51.48 46.06 51.78C45.9581 52.1807 45.7854 52.56 45.55 52.9C45.63 53.5 45.55 53.9 45.22 54.1C45.04 54.1 44.85 54.41 44.66 54.83L44.23 55.04C43.969 55.5363 43.6315 55.9885 43.23 56.38V57.65C42.85 57.65 42.98 57.65 42.99 57.28C43 56.91 42.99 56.73 42.69 56.72C42.54 57.08 42.22 57.21 41.64 57.03C40.69 57.52 40.64 56.72 40.11 56.71L39.41 56.83C38.98 56.83 38.89 57.55 38.77 57.48L38.01 57.36C37.8825 57.2932 37.7709 57.1996 37.6829 57.0857C37.5949 56.9718 37.5325 56.8402 37.5 56.7L37 56.49C36.86 56.06 37.67 55.63 36.65 55.65L35.37 55.88C35.3075 55.3041 35.0859 54.7571 34.73 54.3C34.73 54.03 35.04 54.03 34.86 53.65C34.7391 53.4518 34.6799 53.222 34.69 52.99L35.6 51.75L35.54 51.29C35.7 51.1 35.64 50.83 35.37 50.51C35.68 49.74 35.45 49.51 34.93 49.66C34.83 49.4 34.54 49.31 34.1 49.41C33.8918 49.4759 33.6682 49.4759 33.46 49.41C33.52 49.19 33.53 48.99 33.39 48.88V47.8C33.26 47.68 33.26 47.47 33.39 47.16" fill="white"/>
<path d="M30.56 72.8C27.115 71.4003 24.1222 69.0787 21.91 66.09L24.58 66.4L24.14 63.59C26.1476 65.5851 28.464 67.2431 31 68.5L30.56 72.8Z" stroke="#231F20" stroke-width="0.33" stroke-miterlimit="22.93"/>
<path fill-rule="evenodd" clip-rule="evenodd" d="M30.56 72.8C27.115 71.4003 24.1222 69.0787 21.91 66.09L24.58 66.4L24.14 63.59C26.1476 65.5851 28.464 67.2431 31 68.5L30.56 72.8Z" fill="#0071BB"/>
<path d="M30.52 72.71L32.13 67.31L30.2 66.57L27.14 68.06L30.52 72.71Z" stroke="#231F20" stroke-width="0.33" stroke-linejoin="round"/>
<path fill-rule="evenodd" clip-rule="evenodd" d="M30.52 72.71L32.13 67.31L30.2 66.57L27.14 68.06L30.52 72.71Z" fill="#0071BB"/>
<path d="M48.11 72.85C51.549 71.4448 54.5372 69.1241 56.75 66.14L54.08 66.45L54.53 63.64C52.5191 65.6384 50.1994 67.2997 47.66 68.56L48.11 72.85Z" stroke="#231F20" stroke-width="0.33" stroke-miterlimit="22.93"/>
<path fill-rule="evenodd" clip-rule="evenodd" d="M48.11 72.85C51.549 71.4448 54.5372 69.1241 56.75 66.14L54.08 66.45L54.53 63.64C52.5191 65.6384 50.1994 67.2997 47.66 68.56L48.11 72.85Z" fill="#0071BB"/>
<path d="M48.14 72.76L46.54 67.36L48.46 66.62L51.51 68.11L48.14 72.76Z" stroke="#231F20" stroke-width="0.33" stroke-linejoin="round"/>
<path fill-rule="evenodd" clip-rule="evenodd" d="M48.14 72.76L46.54 67.36L48.46 66.62L51.52 68.11L48.14 72.76Z" fill="#0071BB"/>
<path d="M27 68.58C35 73.31 43.36 73.64 51.67 68.5C51.3621 67.0982 50.6695 65.81 49.67 64.78C42.45 69.64 35.6 69.46 29.06 64.78C27.9724 65.7843 27.248 67.1206 27 68.58V68.58Z" stroke="#231F20" stroke-width="0.33" stroke-miterlimit="22.93"/>
<path fill-rule="evenodd" clip-rule="evenodd" d="M27 68.58C35 73.31 43.36 73.64 51.67 68.5C51.3621 67.0982 50.6695 65.81 49.67 64.78C42.45 69.64 35.6 69.46 29.06 64.78C27.9724 65.7843 27.248 67.1206 27 68.58" fill="#0071BB"/>
<path fill-rule="evenodd" clip-rule="evenodd" d="M46.27 69.12C46.3151 69.2625 46.4022 69.388 46.52 69.48C46.5708 69.5071 46.6274 69.5213 46.685 69.5213C46.7426 69.5213 46.7992 69.5071 46.85 69.48C46.9488 69.4307 47.0243 69.3445 47.06 69.24C47.07 69.1737 47.07 69.1063 47.06 69.04C47.0527 68.9562 47.0289 68.8746 46.99 68.8C46.9455 68.6572 46.8538 68.5338 46.73 68.45C46.6849 68.4279 46.6353 68.4164 46.585 68.4164C46.5347 68.4164 46.4851 68.4279 46.44 68.45C46.3889 68.4712 46.3434 68.5038 46.307 68.5455C46.2706 68.5871 46.2442 68.6365 46.23 68.69C46.1878 68.8336 46.1878 68.9863 46.23 69.13L46.27 69.12ZM45.95 69.24C45.9103 69.0998 45.8869 68.9555 45.88 68.81C45.865 68.7273 45.865 68.6426 45.88 68.56C45.9082 68.4859 45.9451 68.4154 45.99 68.35C46.0613 68.2799 46.1465 68.2254 46.24 68.19C46.3215 68.1462 46.4125 68.1233 46.505 68.1233C46.5975 68.1233 46.6885 68.1462 46.77 68.19C46.8592 68.2368 46.9349 68.3056 46.99 68.39C47.0622 68.4876 47.1257 68.5913 47.18 68.7C47.2214 68.8066 47.2515 68.9172 47.27 69.03C47.2864 69.1293 47.2864 69.2307 47.27 69.33C47.2378 69.4214 47.1865 69.5048 47.1194 69.5747C47.0524 69.6446 46.9711 69.6994 46.8812 69.7354C46.7912 69.7714 46.6946 69.7877 46.5978 69.7834C46.5011 69.779 46.4063 69.7539 46.32 69.71C46.2332 69.6598 46.1582 69.5916 46.1 69.51C46.0582 69.4199 46.0247 69.3262 46 69.23L45.95 69.24ZM44.71 69.93C44.758 70.0796 44.8619 70.205 45 70.28C45.074 70.3128 45.1541 70.3297 45.235 70.3297C45.3159 70.3297 45.396 70.3128 45.47 70.28C45.5823 70.2538 45.6857 70.1986 45.77 70.12C45.8393 70.0555 45.888 69.972 45.91 69.88C45.9309 69.7912 45.9309 69.6988 45.91 69.61C45.8914 69.5189 45.8461 69.4354 45.78 69.37C45.7216 69.32 45.6535 69.2825 45.58 69.26C45.4669 69.2487 45.3531 69.2487 45.24 69.26C45.144 69.2758 45.046 69.2758 44.95 69.26C44.95 69.26 44.9 69.26 44.89 69.17C44.8778 69.1542 44.8712 69.1349 44.8712 69.115C44.8712 69.0951 44.8778 69.0757 44.89 69.06C44.9317 69.0022 44.9915 68.9599 45.06 68.94C45.1217 68.9194 45.1883 68.9194 45.25 68.94C45.3128 68.974 45.3595 69.0315 45.38 69.1L45.66 68.99C45.6138 68.8641 45.5255 68.7581 45.41 68.69C45.2755 68.6344 45.1245 68.6344 44.99 68.69C44.8986 68.7231 44.8114 68.7668 44.73 68.82C44.669 68.8798 44.6273 68.9564 44.61 69.04C44.5799 69.1171 44.5799 69.2028 44.61 69.28C44.6233 69.3401 44.6488 69.3969 44.6849 69.4468C44.721 69.4966 44.767 69.5386 44.82 69.57C44.9396 69.6222 45.0696 69.6461 45.2 69.64H45.45H45.57C45.5786 69.6694 45.5786 69.7006 45.57 69.73C45.5849 69.7558 45.5928 69.7851 45.5928 69.815C45.5928 69.8448 45.5849 69.8741 45.57 69.9C45.5272 69.9716 45.4596 70.025 45.38 70.05C45.3028 70.0801 45.2172 70.0801 45.14 70.05C45.0676 70.0011 45.0118 69.9313 44.98 69.85C44.94 69.84 44.84 69.87 44.75 69.92L44.71 69.93ZM43.3 70.27L43.6 70.17C43.6273 70.2564 43.6839 70.3307 43.76 70.38C43.7958 70.3976 43.8351 70.4068 43.875 70.4068C43.9149 70.4068 43.9542 70.3976 43.99 70.38C44.033 70.3764 44.0748 70.3639 44.1127 70.3432C44.1506 70.3225 44.1837 70.2942 44.21 70.26C44.2218 70.2332 44.228 70.2043 44.228 70.175C44.228 70.1457 44.2218 70.1167 44.21 70.09C44.1997 70.0545 44.1788 70.0231 44.15 70C44.15 70 44.08 70 44.03 69.95H43.77C43.6384 69.9586 43.5069 69.9309 43.39 69.87C43.2876 69.799 43.2161 69.6918 43.19 69.57C43.1704 69.4878 43.1704 69.4022 43.19 69.32C43.2212 69.2383 43.2728 69.166 43.34 69.11C43.4186 69.0545 43.5067 69.0138 43.6 68.99C43.741 68.9322 43.899 68.9322 44.04 68.99C44.0969 69.025 44.1459 69.0716 44.1838 69.1267C44.2217 69.1818 44.2476 69.2443 44.26 69.31L43.99 69.39C43.9603 69.3296 43.9155 69.2779 43.86 69.24C43.795 69.2186 43.725 69.2186 43.66 69.24C43.5912 69.2599 43.5291 69.2979 43.48 69.35C43.4695 69.3682 43.4639 69.3889 43.4639 69.41C43.4639 69.431 43.4695 69.4517 43.48 69.47C43.4909 69.5024 43.512 69.5304 43.54 69.55C43.6388 69.5723 43.7412 69.5723 43.84 69.55C43.9531 69.5403 44.0669 69.5403 44.18 69.55C44.2587 69.5774 44.3303 69.6218 44.39 69.68C44.4496 69.7486 44.4908 69.8312 44.51 69.92C44.5351 70.0116 44.5351 70.1083 44.51 70.2C44.4769 70.2916 44.4179 70.3715 44.34 70.43C44.244 70.498 44.1351 70.5457 44.02 70.57C43.8617 70.6273 43.6883 70.6273 43.53 70.57C43.4397 70.4858 43.374 70.3786 43.34 70.26L43.3 70.27ZM42 70.19C42.0001 70.3438 42.0612 70.4913 42.17 70.6C42.2152 70.6416 42.2694 70.6723 42.3283 70.6897C42.3873 70.707 42.4495 70.7105 42.51 70.7C42.5687 70.6896 42.6247 70.6674 42.6745 70.6347C42.7244 70.6021 42.767 70.5596 42.8 70.51C42.8309 70.4462 42.8544 70.3791 42.87 70.31C42.8744 70.2234 42.8744 70.1366 42.87 70.05C42.8524 69.9032 42.7934 69.7645 42.7 69.65C42.655 69.612 42.6017 69.585 42.5444 69.5711C42.4872 69.5572 42.4274 69.5568 42.37 69.57C42.3098 69.5756 42.2519 69.5958 42.2014 69.6289C42.1508 69.662 42.1091 69.707 42.08 69.76C42.0011 69.8885 41.9726 70.0417 42 70.19ZM41.67 70.25C41.6373 70.1051 41.6373 69.9548 41.67 69.81C41.6978 69.7244 41.7382 69.6435 41.79 69.57C41.8491 69.5011 41.9203 69.4435 42 69.4C42.0954 69.3439 42.2006 69.3066 42.31 69.29C42.4071 69.2673 42.508 69.2672 42.6052 69.2897C42.7023 69.3122 42.7929 69.3568 42.87 69.42C42.9461 69.4851 43.0104 69.5629 43.06 69.65C43.1086 69.7626 43.1454 69.8799 43.17 70C43.1948 70.1221 43.1948 70.2479 43.17 70.37C43.1562 70.4738 43.1185 70.5731 43.06 70.66C42.9972 70.7488 42.9169 70.8239 42.824 70.8806C42.7312 70.9374 42.6277 70.9746 42.52 70.99C42.4144 71.0077 42.3062 71.0026 42.2027 70.975C42.0992 70.9474 42.0028 70.8979 41.92 70.83C41.8385 70.7662 41.7733 70.684 41.73 70.59C41.6767 70.4827 41.6396 70.3681 41.62 70.25H41.67ZM40.44 70.25H40.68H40.97C41.0015 70.2286 41.0286 70.2015 41.05 70.17C41.0522 70.1094 41.0346 70.0497 41 70C40.996 69.9528 40.9786 69.9077 40.95 69.87C40.9181 69.8368 40.8757 69.8156 40.83 69.81H40.6H40.35C40.38 69.93 40.39 70.07 40.39 70.2L40.44 70.25ZM40.12 71.25V70.43C40.12 70.17 40.12 69.89 40.12 69.62C40.34 69.62 40.56 69.62 40.78 69.62C40.8993 69.6023 41.0206 69.6023 41.14 69.62C41.2169 69.6447 41.2836 69.6938 41.33 69.76C41.3772 69.8353 41.4047 69.9213 41.41 70.01C41.4184 70.066 41.4156 70.123 41.4019 70.178C41.3882 70.2329 41.3637 70.2845 41.33 70.33C41.2539 70.4211 41.1473 70.4815 41.03 70.5C41.0941 70.5326 41.1517 70.5766 41.2 70.63C41.2787 70.702 41.3491 70.7825 41.41 70.87C41.48 70.98 41.56 71.08 41.63 71.18H41.23C41.15 71.07 41.06 70.96 40.98 70.84L40.79 70.61C40.7545 70.597 40.7155 70.597 40.68 70.61C40.6274 70.5973 40.5726 70.5973 40.52 70.61C40.5101 70.7231 40.5101 70.8369 40.52 70.95C40.52 71.06 40.52 71.17 40.52 71.29L40.12 71.25ZM39.12 70.65C39.125 70.5567 39.125 70.4632 39.12 70.37C39.36 70.37 39.58 70.37 39.82 70.37V70.7C39.82 70.81 39.82 70.92 39.82 71.02C39.7338 71.1055 39.627 71.1675 39.51 71.2C39.379 71.2484 39.2394 71.2688 39.1 71.26C38.9432 71.2614 38.7885 71.2236 38.65 71.15C38.5316 71.0692 38.4408 70.954 38.39 70.82C38.3575 70.7542 38.3372 70.683 38.33 70.61C38.325 70.5301 38.325 70.4499 38.33 70.37C38.3244 70.2934 38.3244 70.2165 38.33 70.14C38.3592 70.0681 38.3926 69.998 38.43 69.93C38.5067 69.817 38.6117 69.7261 38.7346 69.6664C38.8574 69.6068 38.9938 69.5804 39.13 69.59C39.2881 69.5871 39.4427 69.6363 39.57 69.73C39.6757 69.8153 39.7468 69.9361 39.77 70.07C39.6654 70.0996 39.5583 70.1197 39.45 70.13C39.4455 70.0913 39.4324 70.0542 39.4116 70.0213C39.3908 69.9885 39.3629 69.9607 39.33 69.94C39.2663 69.8931 39.189 69.8685 39.11 69.87C39.0482 69.8661 38.9862 69.8747 38.9278 69.8953C38.8693 69.9159 38.8157 69.9481 38.77 69.99C38.6757 70.1022 38.6227 70.2434 38.62 70.39C38.6146 70.4766 38.6146 70.5634 38.62 70.65C38.6377 70.7154 38.6683 70.7766 38.71 70.83C38.7508 70.8775 38.8014 70.9155 38.8584 70.9415C38.9154 70.9674 38.9774 70.9805 39.04 70.98C39.112 71 39.188 71 39.26 70.98L39.44 70.89V70.68L39.12 70.65ZM36.27 70C36.289 69.8455 36.3637 69.7033 36.48 69.6C36.5723 69.5328 36.687 69.5041 36.8 69.52C36.8571 69.5275 36.9118 69.5475 36.9602 69.5786C37.0086 69.6097 37.0495 69.6512 37.08 69.7C37.1469 69.8329 37.1646 69.9852 37.13 70.13C37.1159 70.2113 37.0959 70.2916 37.07 70.37C37.0382 70.429 36.9978 70.4829 36.95 70.53C36.8531 70.6038 36.7308 70.6362 36.61 70.62C36.5486 70.6143 36.4896 70.5929 36.4389 70.5579C36.3881 70.5228 36.3472 70.4754 36.32 70.42C36.2511 70.2913 36.2332 70.1413 36.27 70ZM36 70C35.981 70.1159 35.981 70.2341 36 70.35C36.0182 70.4512 36.0519 70.549 36.1 70.64C36.1605 70.728 36.239 70.802 36.3304 70.8572C36.4218 70.9124 36.524 70.9474 36.63 70.96C36.7342 70.9798 36.8415 70.9776 36.9448 70.9535C37.0482 70.9294 37.1453 70.8839 37.23 70.82C37.3076 70.7498 37.375 70.669 37.43 70.58C37.481 70.4726 37.5148 70.3579 37.53 70.24C37.54 70.1202 37.54 69.9998 37.53 69.88C37.51 69.7778 37.4728 69.6797 37.42 69.59C37.3603 69.5116 37.2851 69.4463 37.1991 69.3981C37.1131 69.3499 37.0181 69.3199 36.92 69.31C36.8121 69.2797 36.6979 69.2797 36.59 69.31C36.5116 69.3307 36.4372 69.3645 36.37 69.41C36.2992 69.4692 36.2355 69.5363 36.18 69.61C36.0966 69.7279 36.0356 69.8601 36 70V70ZM34.95 70.6C35.01 70.37 35.06 70.16 35.12 69.94L35.3 69.28L34.89 69.18C34.89 69.09 34.89 69 34.96 68.91L36.08 69.18L36.02 69.45L35.59 69.35C35.59 69.57 35.48 69.79 35.43 70.01C35.38 70.23 35.32 70.45 35.26 70.66L34.95 70.6ZM34.25 69.74L33.86 69.63L34.05 69.37L34.25 69.1V69.74ZM34.61 70.51C34.61 70.22 34.61 69.94 34.55 69.64C34.535 69.3535 34.535 69.0664 34.55 68.78L34.26 68.7C34.09 68.94 33.91 69.17 33.73 69.39C33.55 69.61 33.36 69.86 33.18 70.09L33.48 70.19C33.57 70.08 33.64 69.97 33.72 69.86L34.3 70.03C34.3 70.16 34.3 70.29 34.3 70.43L34.61 70.51ZM31.68 69.57C31.8 69.31 31.92 69.07 32.03 68.81L32.39 68.04L32.75 68.18C32.75 68.37 32.67 68.56 32.64 68.75C32.61 68.94 32.57 69.13 32.54 69.33C32.64 69.15 32.76 69 32.87 68.84L33.2 68.36C33.3291 68.3959 33.456 68.4393 33.58 68.49C33.49 68.75 33.38 69 33.29 69.26C33.2 69.52 33.1 69.78 33 70.04L32.73 69.95C32.81 69.75 32.9 69.55 32.98 69.34L33.22 68.74C33.09 68.92 32.97 69.11 32.84 69.3C32.71 69.49 32.59 69.67 32.46 69.86L32.2 69.77C32.2 69.54 32.29 69.33 32.33 69.11C32.37 68.89 32.42 68.67 32.46 68.46C32.38 68.66 32.29 68.86 32.2 69.07C32.11 69.28 32.02 69.46 31.93 69.66L31.68 69.57Z" fill="white"/>
<path fill-rule="evenodd" clip-rule="evenodd" d="M25.35 55.57C25.196 55.6456 25.0699 55.7682 24.99 55.92C24.9629 55.9708 24.9487 56.0274 24.9487 56.085C24.9487 56.1426 24.9629 56.1992 24.99 56.25C25.0219 56.2973 25.0651 56.3359 25.1158 56.3621C25.1665 56.3883 25.223 56.4013 25.28 56.4C25.4573 56.3815 25.6265 56.3159 25.77 56.21C25.9221 56.1317 26.0475 56.0099 26.13 55.86C26.1567 55.8099 26.1696 55.7537 26.1673 55.697C26.1651 55.6403 26.1478 55.5852 26.1173 55.5374C26.0868 55.4895 26.0441 55.4507 25.9936 55.4248C25.9431 55.3989 25.8867 55.3869 25.83 55.39C25.6556 55.4004 25.4883 55.4632 25.35 55.57V55.57ZM25.18 55.32C25.3219 55.2296 25.4771 55.1621 25.64 55.12C25.7361 55.1059 25.8338 55.1059 25.93 55.12C26.0134 55.1222 26.0954 55.1427 26.17 55.18C26.2641 55.2292 26.3408 55.3059 26.39 55.4C26.4391 55.4851 26.465 55.5817 26.465 55.68C26.465 55.7783 26.4391 55.8749 26.39 55.96C26.2736 56.1898 26.0929 56.3809 25.87 56.51C25.6598 56.6597 25.4081 56.7401 25.15 56.74C25.0523 56.7402 24.9564 56.7143 24.872 56.6651C24.7877 56.6159 24.7179 56.5451 24.67 56.46C24.6208 56.3749 24.595 56.2783 24.595 56.18C24.595 56.0817 24.6208 55.9851 24.67 55.9C24.7799 55.6611 24.9571 55.4595 25.18 55.32V55.32ZM25.35 57.62L27 56.43L27.26 56.79L26.32 57.79L27.57 57.2L27.83 57.55L26.2 58.73L26 58.52L27.27 57.59L25.83 58.29L25.66 58.06L26.76 56.9L25.48 57.83L25.35 57.62ZM26.65 59.37L28.13 58L28.32 58.22L27.72 59.55L28.72 58.66L28.9 58.86L27.4 60.23L27.21 60L27.79 58.7L26.79 59.56L26.65 59.37ZM28 60.85L29.43 59.45L29.63 59.66L28.2 61.05L28 60.85ZM29.29 61.2L29.53 61.35C29.4694 61.4358 29.4315 61.5356 29.42 61.64C29.4207 61.6787 29.4301 61.7167 29.4474 61.7513C29.4647 61.7859 29.4895 61.8162 29.52 61.84C29.5454 61.8727 29.5796 61.8975 29.6185 61.9117C29.6574 61.9258 29.6995 61.9287 29.74 61.92C29.7747 61.9189 29.8088 61.9103 29.8399 61.8948C29.871 61.8792 29.8983 61.8571 29.92 61.83C29.9474 61.7954 29.9647 61.7538 29.97 61.71C29.9837 61.6678 29.9837 61.6222 29.97 61.58L29.85 61.36C29.7736 61.2547 29.7285 61.1299 29.72 61C29.7325 60.8538 29.7882 60.7145 29.88 60.6C29.9497 60.5316 30.0268 60.4712 30.11 60.42C30.1983 60.3952 30.2917 60.3952 30.38 60.42C30.4791 60.4318 30.571 60.4778 30.64 60.55C30.7032 60.594 30.7551 60.6522 30.7916 60.7199C30.8281 60.7877 30.8481 60.8631 30.85 60.94C30.8462 61.1009 30.7819 61.2544 30.67 61.37L30.44 61.19C30.4926 61.1289 30.5211 61.0507 30.52 60.97C30.5188 60.9367 30.5102 60.9041 30.4946 60.8746C30.479 60.8452 30.4569 60.8197 30.43 60.8C30.4042 60.7738 30.3728 60.7539 30.3381 60.7417C30.3035 60.7296 30.2665 60.7256 30.23 60.73C30.207 60.7313 30.1845 60.7373 30.1638 60.7477C30.1432 60.758 30.1249 60.7724 30.11 60.79C30.0955 60.8321 30.0955 60.8779 30.11 60.92C30.1238 61.0165 30.1655 61.1069 30.23 61.18C30.295 61.279 30.3455 61.3867 30.38 61.5C30.4044 61.5849 30.4044 61.6751 30.38 61.76C30.3547 61.8676 30.3031 61.9672 30.23 62.05C30.1511 62.1279 30.0599 62.1921 29.96 62.24C29.8719 62.2895 29.7695 62.3071 29.67 62.29C29.5624 62.2647 29.4628 62.2132 29.38 62.14C29.3169 62.0914 29.2654 62.0294 29.2291 61.9585C29.1928 61.8876 29.1726 61.8096 29.17 61.73C29.1507 61.5462 29.1892 61.361 29.28 61.2H29.29Z" fill="white"/>
<path fill-rule="evenodd" clip-rule="evenodd" d="M41.31 54.77C41.31 54.91 40.7 55.04 39.95 55.04C39.2 55.04 38.57 54.91 38.57 54.77V55C38.57 55.14 39.19 55.28 39.95 55.28C40.71 55.28 41.32 55.14 41.32 55L41.31 54.77Z" fill="#949698"/>
<path fill-rule="evenodd" clip-rule="evenodd" d="M39.33 55V55.19C39.7552 55.2401 40.1848 55.2401 40.61 55.19V55C40.1855 55.0613 39.7545 55.0613 39.33 55Z" fill="#9EA0A2"/>
<path fill-rule="evenodd" clip-rule="evenodd" d="M39.42 55V55.18C39.7827 55.21 40.1473 55.21 40.51 55.18V55C40.1478 55.0412 39.7822 55.0412 39.42 55" fill="#A8AAAD"/>
<path fill-rule="evenodd" clip-rule="evenodd" d="M39.51 55V55.2C39.72 55.2 40.21 55.2 40.43 55.2V55C40.1244 55.0354 39.8156 55.0354 39.51 55Z" fill="#B3B5B8"/>
<path fill-rule="evenodd" clip-rule="evenodd" d="M39.57 55.05V55.24C39.76 55.24 40.17 55.24 40.36 55.24V55C40.0973 55.0256 39.8327 55.0256 39.57 55" fill="#BDBFC1"/>
<path fill-rule="evenodd" clip-rule="evenodd" d="M39.63 55.05V55.24C39.78 55.24 40.14 55.24 40.3 55.24V55.06C40.0771 55.08 39.8529 55.08 39.63 55.06" fill="#C7C9CB"/>
<path fill-rule="evenodd" clip-rule="evenodd" d="M39.68 55.06V55.24C39.8665 55.25 40.0535 55.25 40.24 55.24V55.07H39.68" fill="#D2D3D5"/>
<path fill-rule="evenodd" clip-rule="evenodd" d="M39.72 55.06V55.24C39.8832 55.25 40.0468 55.25 40.21 55.24V55.07H39.72" fill="#DDDEDF"/>
<path fill-rule="evenodd" clip-rule="evenodd" d="M39.76 55.06V55.24C39.8965 55.25 40.0335 55.25 40.17 55.24V55.07H39.76" fill="#E9E9EA"/>
<path fill-rule="evenodd" clip-rule="evenodd" d="M40 55C40.75 55 41.36 54.87 41.36 54.73C41.36 54.59 40.75 54.53 40 54.53C39.25 54.53 38.62 54.6 38.62 54.73C38.62 54.86 39.18 55 40 55Z" fill="#949698"/>
<path fill-rule="evenodd" clip-rule="evenodd" d="M41.16 54.61C41.16 54.72 40.63 54.81 39.97 54.81C39.31 54.81 38.76 54.71 38.77 54.62V54.73C38.77 54.82 39.32 54.93 39.97 54.93C40.62 54.93 41.16 54.83 41.16 54.73V54.61Z" fill="#949698"/>
<path fill-rule="evenodd" clip-rule="evenodd" d="M39.31 54.78V54.89C39.7324 54.9299 40.1576 54.9299 40.58 54.89V54.78C40.1574 54.8148 39.7326 54.8148 39.31 54.78Z" fill="#9EA0A2"/>
<path fill-rule="evenodd" clip-rule="evenodd" d="M39.39 54.79V54.91C39.7531 54.93 40.1169 54.93 40.48 54.91V54.8C40.1171 54.8245 39.7529 54.8245 39.39 54.8" fill="#A8AAAD"/>
<path fill-rule="evenodd" clip-rule="evenodd" d="M39.48 54.8V54.91C39.69 54.91 40.17 54.91 40.4 54.91V54.8C40.17 54.8 39.79 54.8 39.48 54.8Z" fill="#B3B5B8"/>
<path fill-rule="evenodd" clip-rule="evenodd" d="M39.55 54.81V54.91H40.33V54.8C40.13 54.8 39.81 54.8 39.55 54.8" fill="#BDBFC1"/>
<path fill-rule="evenodd" clip-rule="evenodd" d="M39.6 54.81V54.92H40.26V54.81C40.0405 54.8301 39.8195 54.8301 39.6 54.81Z" fill="#C7C9CB"/>
<path fill-rule="evenodd" clip-rule="evenodd" d="M39.65 54.81V54.92H40.22V54.81H39.65Z" fill="#D2D3D5"/>
<path fill-rule="evenodd" clip-rule="evenodd" d="M39.7 54.81V54.92H40.18V54.81H39.7Z" fill="#DDDEDF"/>
<path fill-rule="evenodd" clip-rule="evenodd" d="M39.73 54.81V54.92H40.14V54.81H39.73Z" fill="#E9E9EA"/>
<path fill-rule="evenodd" clip-rule="evenodd" d="M40 54.81C40.66 54.81 41.2 54.72 41.2 54.61C41.2 54.5 40.66 54.4 40 54.4C39.34 54.4 38.81 54.49 38.8 54.61C38.79 54.73 39.33 54.81 40 54.81Z" fill="#949698"/>
<path fill-rule="evenodd" clip-rule="evenodd" d="M42 53.79C42.5499 53.8425 43.1035 53.7421 43.6 53.5C43.0772 53.3684 42.539 53.3079 42 53.32C41.4882 53.2979 40.976 53.3518 40.48 53.48C40.48 53.58 41.1 53.79 41.99 53.79" fill="#949698"/>
<path fill-rule="evenodd" clip-rule="evenodd" d="M42.06 53.79C42.58 53.8262 43.1004 53.7262 43.57 53.5C43.3825 53.7318 43.1456 53.9187 42.8765 54.0472C42.6075 54.1756 42.3131 54.2422 42.015 54.2422C41.7169 54.2422 41.4225 54.1756 41.1535 54.0472C40.8844 53.9187 40.6475 53.7318 40.46 53.5C40.9247 53.7412 41.4484 53.8452 41.97 53.8L42.06 53.79Z" fill="#949698"/>
<path d="M40.12 48.78H39.76V49.43H40.12V48.78Z" fill="#949698"/>
<path fill-rule="evenodd" clip-rule="evenodd" d="M39.76 49C39.633 48.9248 39.4909 48.8786 39.344 48.8648C39.197 48.8509 39.0488 48.8698 38.91 48.92C38.58 49.08 38.31 49.27 38.06 49.08C37.81 48.89 37.69 49.18 37.8 49.27C37.91 49.36 38 49.33 38 49.21C38.2298 49.3242 38.4948 49.3457 38.74 49.27C38.892 49.1823 39.0645 49.136 39.24 49.136C39.4155 49.136 39.588 49.1823 39.74 49.27L39.76 49Z" fill="#949698"/>
<path fill-rule="evenodd" clip-rule="evenodd" d="M37.77 49.14C37.77 48.98 37.7 49.02 37.69 49.07C37.68 49.12 37.63 49.23 37.69 49.24C37.75 49.25 37.77 49.33 37.77 49.14Z" fill="#949698"/>
<path fill-rule="evenodd" clip-rule="evenodd" d="M37.91 49.29C38.03 49.51 37.91 49.57 37.84 49.5C37.77 49.43 37.67 49.44 37.75 49.5C37.766 49.5189 37.7859 49.5342 37.8083 49.5446C37.8308 49.555 37.8552 49.5604 37.88 49.5604C37.9048 49.5604 37.9292 49.555 37.9517 49.5446C37.9741 49.5342 37.994 49.5189 38.01 49.5C38.09 49.4 38.01 49.18 38.01 49.18L37.91 49.29Z" fill="#949698"/>
<path fill-rule="evenodd" clip-rule="evenodd" d="M37.85 49.5H37.91C37.915 49.5632 37.915 49.6268 37.91 49.69C38 49.69 38.01 49.69 38.01 49.74C38.01 49.79 38.01 50.24 38.07 50.27C38.13 50.3 38.16 50.19 38.2 50.27C38.24 50.35 38.2 50.41 38.07 50.38C37.94 50.35 38 50.1 38 50H37.94V50.21C37.94 50.3 38.01 50.4 37.94 50.4C37.87 50.4 37.94 50.29 37.94 50.2C37.9453 50.1334 37.9453 50.0666 37.94 50H37.8C37.8 50.07 37.8 50.41 37.63 50.37C37.46 50.33 37.52 50.24 37.58 50.24C37.64 50.24 37.67 50.37 37.72 50.24C37.7516 50.1056 37.7684 49.9681 37.77 49.83C37.77 49.7 37.77 49.73 37.85 49.73V49.5Z" fill="#949698"/>
<path fill-rule="evenodd" clip-rule="evenodd" d="M39.84 54.46L39.64 54.28L39.82 54.1H40.05L40.23 54.28L40.03 54.46H39.84Z" fill="#949698"/>
<path fill-rule="evenodd" clip-rule="evenodd" d="M40.12 49C40.2462 48.9231 40.3879 48.8752 40.5349 48.8596C40.6819 48.8441 40.8305 48.8613 40.97 48.91C41.3 49.07 41.57 49.26 41.81 49.07C42.05 48.88 42.19 49.16 42.08 49.26C41.97 49.36 41.87 49.32 41.87 49.2C41.7595 49.2612 41.6373 49.2982 41.5115 49.3086C41.3856 49.3189 41.259 49.3024 41.14 49.26C40.988 49.1722 40.8155 49.126 40.64 49.126C40.4645 49.126 40.292 49.1722 40.14 49.26L40.12 49Z" fill="#949698"/>
<path fill-rule="evenodd" clip-rule="evenodd" d="M42.11 49.16C42.11 48.99 42.18 49.03 42.19 49.09C42.2 49.15 42.26 49.24 42.19 49.25C42.12 49.26 42.11 49.34 42.11 49.16" fill="#949698"/>
<path fill-rule="evenodd" clip-rule="evenodd" d="M42 49.3C41.88 49.52 42.05 49.58 42.06 49.52C42.07 49.46 42.23 49.45 42.15 49.52C42.135 49.5388 42.116 49.5539 42.0943 49.5643C42.0727 49.5747 42.049 49.5801 42.025 49.5801C42.001 49.5801 41.9773 49.5747 41.9556 49.5643C41.934 49.5539 41.915 49.5388 41.9 49.52C41.82 49.43 41.9 49.2 41.9 49.2L42 49.3Z" fill="#949698"/>
<path fill-rule="evenodd" clip-rule="evenodd" d="M42 49.52C41.9772 49.513 41.9528 49.513 41.93 49.52V49.7C41.85 49.7 41.84 49.7 41.84 49.7C41.84 49.7 41.84 50.19 41.78 50.23C41.72 50.27 41.69 50.15 41.65 50.23C41.61 50.31 41.65 50.36 41.77 50.33C41.89 50.3 41.88 50.09 41.88 49.96H42V50.18C42 50.27 41.93 50.38 42 50.38C42.07 50.38 42 50.27 42 50.17V50H42.06C42.06 50.08 42.06 50.43 42.24 50.38C42.42 50.33 42.33 50.25 42.24 50.25C42.15 50.25 42.14 50.39 42.09 50.25C42.076 50.1137 42.076 49.9763 42.09 49.84C42.09 49.71 42.09 49.74 42.01 49.74L42 49.52Z" fill="#949698"/>
<path d="M37.67 50.27L36.52 53.43" stroke="#231F20" stroke-width="0.05" stroke-miterlimit="22.93"/>
<path d="M38.06 50.27L39.28 53.46" stroke="#231F20" stroke-width="0.05" stroke-miterlimit="22.93"/>
<path d="M41.79 50.29L40.68 53.43" stroke="#231F20" stroke-width="0.05" stroke-miterlimit="22.93"/>
<path d="M42 50.41V53.79" stroke="#231F20" stroke-width="0.05" stroke-miterlimit="22.93"/>
<path d="M42.2 50.29L43.34 53.44" stroke="#231F20" stroke-width="0.05" stroke-miterlimit="22.93"/>
<path fill-rule="evenodd" clip-rule="evenodd" d="M40 49.43L40.09 49.52L40.02 49.6L40.09 49.69V49.7V54.1H39.79V49.69L39.86 49.6L39.79 49.52L39.88 49.43H40Z" fill="#949698"/>
<path fill-rule="evenodd" clip-rule="evenodd" d="M39.93 48.57C39.9796 48.5676 40.0265 48.5468 40.0617 48.5116C40.0968 48.4765 40.1176 48.4296 40.12 48.38C40.1201 48.3286 40.1004 48.2792 40.065 48.242C40.0296 48.2048 39.9813 48.1826 39.93 48.18C39.9007 48.1733 39.8703 48.1733 39.841 48.18C39.8117 48.1867 39.7843 48.1999 39.7608 48.2186C39.7374 48.2374 39.7184 48.2612 39.7054 48.2882C39.6923 48.3153 39.6856 48.3449 39.6856 48.375C39.6856 48.405 39.6923 48.4347 39.7054 48.4617C39.7184 48.4888 39.7374 48.5126 39.7608 48.5313C39.7843 48.5501 39.8117 48.5633 39.841 48.57C39.8703 48.5767 39.9007 48.5767 39.93 48.57" fill="#949698"/>
<path fill-rule="evenodd" clip-rule="evenodd" d="M40.12 48.78H39.76C39.76 48.78 39.86 48.78 39.86 48.55H40C40 48.68 40 48.7 40.11 48.78" fill="#949698"/>
<path fill-rule="evenodd" clip-rule="evenodd" d="M43.52 53.53C43.0628 53.4337 42.5972 53.3835 42.13 53.38C42.1363 53.4284 42.153 53.4749 42.1788 53.5164C42.2047 53.5578 42.2392 53.5931 42.28 53.62C42.5388 53.5991 42.7992 53.6228 43.05 53.69C43.2123 53.6549 43.37 53.6012 43.52 53.53" fill="#949698"/>
<path fill-rule="evenodd" clip-rule="evenodd" d="M43.43 53.51C43.0339 53.436 42.6327 53.3926 42.23 53.38C42.2395 53.4719 42.2821 53.5573 42.35 53.62C42.5778 53.6102 42.806 53.627 43.03 53.67C43.1719 53.6412 43.3074 53.587 43.43 53.51" fill="#9EA0A2"/>
<path fill-rule="evenodd" clip-rule="evenodd" d="M43.36 53.5C43.0294 53.4398 42.6955 53.3997 42.36 53.38C42.3611 53.4215 42.3705 53.4624 42.3877 53.5001C42.4049 53.5379 42.4294 53.5719 42.46 53.6C42.6652 53.6099 42.8692 53.6367 43.07 53.68C43.1912 53.6362 43.3056 53.5756 43.41 53.5" fill="#A8AAAD"/>
<path fill-rule="evenodd" clip-rule="evenodd" d="M43.3 53.49C42.9996 53.4319 42.6955 53.3951 42.39 53.38C42.3955 53.4672 42.4268 53.5507 42.48 53.62C42.6509 53.6263 42.8212 53.643 42.99 53.67C43.1029 53.6282 43.2077 53.5673 43.3 53.49" fill="#B3B5B8"/>
<path fill-rule="evenodd" clip-rule="evenodd" d="M43.23 53.47C42.9719 53.4286 42.7113 53.4053 42.45 53.4C42.4506 53.4787 42.475 53.5554 42.52 53.62C42.6715 53.6169 42.8228 53.6337 42.97 53.67C43.0671 53.6181 43.1549 53.5505 43.23 53.47" fill="#BDBFC1"/>
<path fill-rule="evenodd" clip-rule="evenodd" d="M43.17 53.47C42.9481 53.4347 42.7244 53.4114 42.5 53.4C42.5008 53.4773 42.5214 53.5531 42.56 53.62H42.94C43.0275 53.5711 43.1054 53.5067 43.17 53.43" fill="#C7C9CB"/>
<path fill-rule="evenodd" clip-rule="evenodd" d="M43.11 53.46C42.9256 53.4225 42.7381 53.4024 42.55 53.4C42.5533 53.4758 42.5702 53.5503 42.6 53.62H42.92C42.92 53.62 43.08 53.47 43.11 53.42" fill="#D2D3D5"/>
<path fill-rule="evenodd" clip-rule="evenodd" d="M43.07 53.46C42.9091 53.4234 42.745 53.4033 42.58 53.4C42.5682 53.4729 42.5682 53.5472 42.58 53.62H42.86C42.86 53.62 43.01 53.46 43.03 53.42" fill="#DDDEDF"/>
<path fill-rule="evenodd" clip-rule="evenodd" d="M39.77 48.48C39.77 48.48 39.77 48.48 39.84 48.39C39.92 48.58 40.04 48.39 40.04 48.28C40.11 48.28 40.11 48.39 40.09 48.48C40.0494 48.5285 39.9925 48.5605 39.93 48.57C39.8981 48.5689 39.8669 48.5601 39.8391 48.5445C39.8112 48.5288 39.7876 48.5067 39.77 48.48" fill="#636467"/>
<path fill-rule="evenodd" clip-rule="evenodd" d="M37.88 49.82H37.94C37.9376 49.8059 37.9303 49.7931 37.9193 49.7839C37.9082 49.7748 37.8943 49.7698 37.88 49.77C37.8667 49.77 37.854 49.7753 37.8446 49.7847C37.8353 49.794 37.83 49.8068 37.83 49.82C37.83 49.82 37.83 49.82 37.88 49.82Z" fill="white"/>
<path d="M40 49.7H39.84V54.08H40V49.7Z" fill="#9EA0A2"/>
<path d="M39.98 49.7H39.84V54.08H39.98V49.7Z" fill="#A8AAAD"/>
<path d="M39.97 49.7H39.86V54.08H39.97V49.7Z" fill="#B3B5B8"/>
<path d="M39.96 49.7H39.86V54.08H39.96V49.7Z" fill="#BDBFC1"/>
<path d="M39.96 49.7H39.87V54.08H39.96V49.7Z" fill="#C7C9CB"/>
<path fill-rule="evenodd" clip-rule="evenodd" d="M38 53.8C38.5193 53.8255 39.0371 53.7261 39.51 53.51C39.3385 53.7614 39.1044 53.9637 38.8308 54.097C38.5573 54.2303 38.2537 54.2899 37.95 54.27C37.6467 54.287 37.3442 54.226 37.0711 54.093C36.7981 53.96 36.5636 53.7593 36.39 53.51C36.8596 53.7362 37.38 53.8362 37.9 53.8H38Z" fill="#949698"/>
<path fill-rule="evenodd" clip-rule="evenodd" d="M37.86 53.8C38.4132 53.8543 38.9706 53.7539 39.47 53.51C38.9461 53.3854 38.4084 53.3283 37.87 53.34C37.3621 53.3175 36.8536 53.368 36.36 53.49C36.36 53.59 36.97 53.8 37.86 53.8Z" fill="#8B8D8F"/>
<path fill-rule="evenodd" clip-rule="evenodd" d="M39.45 53.52C38.9881 53.431 38.5201 53.3775 38.05 53.36C38.0548 53.4116 38.0707 53.4615 38.0966 53.5064C38.1225 53.5512 38.1578 53.59 38.2 53.62C38.4615 53.6026 38.7242 53.6228 38.98 53.68C39.1447 53.6541 39.3037 53.5999 39.45 53.52" fill="#949698"/>
<path fill-rule="evenodd" clip-rule="evenodd" d="M39.36 53.51C38.9597 53.4378 38.5558 53.3877 38.15 53.36C38.1507 53.4064 38.1619 53.4521 38.1827 53.4936C38.2035 53.5352 38.2333 53.5715 38.27 53.6C38.5017 53.6014 38.7327 53.6249 38.96 53.67C39.1019 53.6412 39.2374 53.587 39.36 53.51" fill="#9EA0A2"/>
<path fill-rule="evenodd" clip-rule="evenodd" d="M39.28 53.49C38.9325 53.4322 38.5819 53.3954 38.23 53.38C38.2405 53.4617 38.2753 53.5384 38.33 53.6C38.5312 53.6117 38.7315 53.6351 38.93 53.67C39.0561 53.6304 39.1744 53.5695 39.28 53.49" fill="#A8AAAD"/>
<path fill-rule="evenodd" clip-rule="evenodd" d="M39.22 53.49C38.9163 53.432 38.6089 53.3952 38.3 53.38C38.3107 53.4598 38.3416 53.5356 38.39 53.6C38.5647 53.6122 38.7384 53.6355 38.91 53.67C39.0199 53.622 39.1239 53.5616 39.22 53.49" fill="#B3B5B8"/>
<path fill-rule="evenodd" clip-rule="evenodd" d="M39.15 53.47C39.05 53.47 38.55 53.38 38.36 53.38C38.3662 53.4577 38.3902 53.533 38.43 53.6C38.53 53.6 38.79 53.6 38.89 53.66C38.9851 53.6092 39.0727 53.5452 39.15 53.47" fill="#BDBFC1"/>
<path fill-rule="evenodd" clip-rule="evenodd" d="M39.09 53.46C38.8646 53.4279 38.6376 53.4079 38.41 53.4C38.4181 53.4711 38.4421 53.5394 38.48 53.6L38.86 53.66C38.9481 53.6078 39.026 53.54 39.09 53.46" fill="#C7C9CB"/>
<path fill-rule="evenodd" clip-rule="evenodd" d="M39 53.46C38.8122 53.4231 38.6214 53.403 38.43 53.4C38.419 53.4729 38.419 53.5471 38.43 53.62H38.76C38.76 53.62 38.92 53.47 38.95 53.43" fill="#D2D3D5"/>
<path fill-rule="evenodd" clip-rule="evenodd" d="M39 53.45C38.843 53.4115 38.6815 53.3947 38.52 53.4C38.5138 53.4732 38.5138 53.5468 38.52 53.62H38.8C38.8 53.62 38.94 53.46 38.96 53.42" fill="#DDDEDF"/>
<path fill-rule="evenodd" clip-rule="evenodd" d="M37.87 54.27C37.9723 54.2642 38.0733 54.244 38.17 54.21C38.2695 54.0893 38.3351 53.9444 38.36 53.79C38.2235 53.7986 38.0865 53.7986 37.95 53.79H37.85C37.6803 53.8045 37.5097 53.8045 37.34 53.79C37.3774 53.9532 37.4607 54.1024 37.58 54.22C37.6738 54.252 37.7712 54.2721 37.87 54.28" fill="#9EA0A2"/>
<path fill-rule="evenodd" clip-rule="evenodd" d="M37.88 54.27C37.966 54.2633 38.0503 54.243 38.13 54.21C38.2114 54.086 38.2659 53.9463 38.29 53.8H37.43C37.4595 53.9519 37.5285 54.0933 37.63 54.21C37.7092 54.2444 37.7938 54.2647 37.88 54.27" fill="#A8AAAD"/>
<path fill-rule="evenodd" clip-rule="evenodd" d="M37.88 54.27C37.9563 54.2629 38.0307 54.2426 38.1 54.21C38.1687 54.0827 38.2128 53.9436 38.23 53.8H37.51C37.5343 53.9463 37.5888 54.0859 37.67 54.21C37.7357 54.2429 37.8069 54.2632 37.88 54.27" fill="#B3B5B8"/>
<path fill-rule="evenodd" clip-rule="evenodd" d="M37.88 54.27C37.96 54.27 38.04 54.27 38.06 54.21C38.1213 54.084 38.1618 53.9489 38.18 53.81H37.55C37.5664 53.9567 37.6178 54.0973 37.7 54.22C37.7 54.22 37.8 54.22 37.88 54.28" fill="#BDBFC1"/>
<path fill-rule="evenodd" clip-rule="evenodd" d="M37.88 54.27C37.937 54.2615 37.9915 54.241 38.04 54.21C38.0909 54.0817 38.1245 53.9472 38.14 53.81H37.6C37.6237 53.9489 37.6675 54.0837 37.73 54.21C37.73 54.21 37.81 54.21 37.88 54.27Z" fill="#C7C9CB"/>
<path fill-rule="evenodd" clip-rule="evenodd" d="M37.88 54.27C37.88 54.27 37.98 54.27 38 54.21C38.0378 54.0796 38.0613 53.9455 38.07 53.81H37.69C37.6982 53.9464 37.7251 54.081 37.77 54.21C37.77 54.21 37.83 54.21 37.88 54.27" fill="#D2D3D5"/>
<path fill-rule="evenodd" clip-rule="evenodd" d="M37.88 54.27C37.88 54.27 37.97 54.27 37.98 54.21C38.0146 54.0793 38.0348 53.9451 38.04 53.81H37.72C37.7194 53.9464 37.7431 54.0819 37.79 54.21C37.79 54.21 37.84 54.21 37.88 54.27" fill="#DDDEDF"/>
<path fill-rule="evenodd" clip-rule="evenodd" d="M42 54.25C42.1032 54.2521 42.2056 54.2316 42.3 54.19C42.3976 54.0682 42.4629 53.9237 42.49 53.77C42.3469 53.7803 42.2032 53.7803 42.06 53.77H42C41.8301 53.7795 41.6599 53.7795 41.49 53.77C41.5247 53.9314 41.6086 54.0781 41.73 54.19C41.8238 54.2336 41.9267 54.2542 42.03 54.25" fill="#9EA0A2"/>
<path fill-rule="evenodd" clip-rule="evenodd" d="M42 54.25C42.11 54.25 42.22 54.25 42.25 54.19C42.3388 54.07 42.394 53.9285 42.41 53.78C42.2935 53.789 42.1765 53.789 42.06 53.78H42H41.56C41.5883 53.9343 41.6613 54.0769 41.77 54.19C41.77 54.19 41.91 54.24 42.02 54.25" fill="#A8AAAD"/>
<path fill-rule="evenodd" clip-rule="evenodd" d="M42 54.25C42.09 54.25 42.18 54.25 42.21 54.19C42.2858 54.0659 42.3304 53.9252 42.34 53.78C42.2438 53.7941 42.1461 53.7941 42.05 53.78H41.62C41.6436 53.9234 41.6982 54.0599 41.78 54.18C41.78 54.18 41.9 54.23 42 54.24" fill="#B3B5B8"/>
<path fill-rule="evenodd" clip-rule="evenodd" d="M42 54.25C42.08 54.25 42.16 54.25 42.19 54.19C42.2529 54.0689 42.2903 53.9361 42.3 53.8H41.68C41.6974 53.9404 41.7416 54.0762 41.81 54.2C41.8656 54.2391 41.932 54.26 42 54.26" fill="#BDBFC1"/>
<path fill-rule="evenodd" clip-rule="evenodd" d="M42 54.25C42.06 54.25 42.13 54.25 42.15 54.19C42.2129 54.0689 42.2503 53.9361 42.26 53.8H41.73C41.7396 53.9375 41.7807 54.0709 41.85 54.19C41.85 54.19 41.93 54.24 42 54.25" fill="#C7C9CB"/>
<path fill-rule="evenodd" clip-rule="evenodd" d="M42 54.25C42 54.25 42.11 54.25 42.12 54.19C42.1578 54.063 42.1812 53.9322 42.19 53.8H41.81C41.8171 53.9332 41.8441 54.0647 41.89 54.19C41.89 54.19 41.96 54.24 42 54.25" fill="#D2D3D5"/>
<path fill-rule="evenodd" clip-rule="evenodd" d="M42 54.25C42 54.25 42.08 54.25 42.1 54.19C42.1297 54.0617 42.1498 53.9313 42.16 53.8H41.83C41.8469 53.9318 41.8736 54.0622 41.91 54.19C41.91 54.19 41.97 54.24 42 54.25" fill="#DDDEDF"/>
<path fill-rule="evenodd" clip-rule="evenodd" d="M39.93 48.71C40.03 48.71 40.12 48.71 40.12 48.66C40.12 48.61 40.03 48.66 39.93 48.66C39.83 48.66 39.73 48.66 39.73 48.66C39.73 48.66 39.79 48.71 39.93 48.71Z" fill="#949698"/>
<path d="M37.88 50.39V53.8" stroke="#231F20" stroke-width="0.05" stroke-miterlimit="22.93"/>
<path d="M46.23 60.85C48.8319 59.0317 50.9028 56.5535 52.23 53.67L56.11 55.11C54.4278 59.5579 51.1524 63.2218 46.92 65.39L45.1 63.15L46.23 60.85Z" stroke="#231F20" stroke-width="0.33" stroke-miterlimit="22.93"/>
<path fill-rule="evenodd" clip-rule="evenodd" d="M46.23 60.85C48.8319 59.0317 50.9028 56.5535 52.23 53.67L56.11 55.11C54.4278 59.5579 51.1524 63.2218 46.92 65.39L45.1 63.15L46.23 60.85Z" fill="#ED1C24"/>
<path d="M45.39 64.11L46.82 65.57L48.84 62.53L45.39 64.11Z" stroke="#231F20" stroke-width="0.33" stroke-linejoin="round"/>
<path fill-rule="evenodd" clip-rule="evenodd" d="M45.39 64.11L46.82 65.57L48.84 62.53L45.39 64.11Z" fill="#ED1C24"/>
<path d="M32.93 59.43C37.33 61.97 41.72 62.29 46.11 59.36L48.86 62.56C42.6 66.71 36.39 66.44 30.22 62.48L32.93 59.43Z" stroke="#231F20" stroke-width="0.33" stroke-linejoin="round"/>
<path fill-rule="evenodd" clip-rule="evenodd" d="M32.93 59.43C37.33 61.97 41.72 62.29 46.11 59.36L48.86 62.56C42.6 66.71 36.39 66.44 30.22 62.48L32.93 59.43Z" fill="#ED1C24"/>
<path fill-rule="evenodd" clip-rule="evenodd" d="M50.7 61.54L50.45 61.72L50.1 61.44L49.64 61.77L49.81 62.19L49.57 62.37L48.87 60.49L49.1 60.31L50.7 61.54ZM49.83 61.23L49.25 60.77L49.52 61.45L49.83 61.23ZM51.46 60.61L50 59.38L50.18 59.16L51.4 60.16L51.85 59.62L52.1 59.84L51.46 60.61ZM52.38 59.61L50.85 58.44L51.48 57.61L51.75 57.82L51.28 58.41L51.62 58.68L52.05 58.13L52.31 58.32L51.88 58.87L52.3 59.2L52.77 58.58L53.03 58.78L52.38 59.61ZM53.16 57.39L52.89 57.2L53.24 56.7L53.87 57.15C53.8962 57.255 53.8962 57.3649 53.87 57.47C53.8643 57.5999 53.8191 57.725 53.7405 57.8286C53.6619 57.9322 53.5536 58.0095 53.43 58.05C53.2848 58.0716 53.1364 58.0544 53 58C52.8324 57.948 52.6739 57.8704 52.53 57.77C52.3818 57.6669 52.2531 57.5382 52.15 57.39C52.0663 57.2756 52.0146 57.141 52 57C52.0068 56.8806 52.0485 56.7658 52.12 56.67C52.1587 56.605 52.2109 56.5491 52.2729 56.506C52.335 56.4629 52.4056 56.4336 52.48 56.42C52.6347 56.3955 52.7932 56.4237 52.93 56.5L52.82 56.77C52.7392 56.741 52.6508 56.741 52.57 56.77C52.5333 56.7765 52.4984 56.7905 52.4674 56.8112C52.4365 56.8318 52.4101 56.8586 52.39 56.89C52.3629 56.9389 52.3486 56.994 52.3486 57.05C52.3486 57.106 52.3629 57.161 52.39 57.21C52.4624 57.3655 52.5812 57.4947 52.73 57.58C52.8713 57.693 53.0407 57.7656 53.22 57.79C53.2776 57.7923 53.3348 57.7809 53.387 57.7565C53.4392 57.7321 53.4848 57.6956 53.52 57.65C53.551 57.5932 53.5745 57.5327 53.59 57.47C53.595 57.4067 53.595 57.3432 53.59 57.28L53.39 57.14L53.16 57.39ZM54.36 56.68L52.65 55.77L53.14 54.85L53.43 55.01L53.07 55.68L53.46 55.88L53.78 55.26L54.07 55.41L53.74 56.04L54.2 56.28L54.57 55.59L54.86 55.74L54.36 56.68Z" fill="white"/>
<path fill-rule="evenodd" clip-rule="evenodd" d="M33.74 61.37L33.5 61.92L33.65 61.99C33.7269 62.0228 33.8075 62.0463 33.89 62.06C33.9317 62.0511 33.9699 62.0302 34 62C34.0433 61.9613 34.0775 61.9135 34.1 61.86C34.124 61.7989 34.124 61.731 34.1 61.67C34.091 61.6174 34.0666 61.5687 34.03 61.53L33.83 61.44L33.74 61.37ZM32.74 62.86L33.6 60.92L34.06 61.12C34.1793 61.1611 34.2908 61.222 34.39 61.3C34.4617 61.3755 34.5012 61.4759 34.5 61.58C34.5056 61.7221 34.4746 61.8633 34.41 61.99C34.369 62.0943 34.3079 62.1894 34.23 62.27C34.1735 62.3296 34.1054 62.3773 34.03 62.41C33.9675 62.4242 33.9025 62.4242 33.84 62.41C33.7339 62.3907 33.63 62.3606 33.53 62.32L33.34 62.23L33 63L32.74 62.86ZM34.87 62.65C34.7934 62.8261 34.7691 63.0205 34.8 63.21C34.811 63.2711 34.8368 63.3285 34.8752 63.3773C34.9135 63.4262 34.9633 63.4648 35.02 63.49C35.0816 63.5103 35.1477 63.5137 35.211 63.4996C35.2744 63.4855 35.3328 63.4545 35.38 63.41C35.5134 63.2792 35.6129 63.1179 35.67 62.94C35.7441 62.7632 35.7717 62.5704 35.75 62.38C35.7383 62.3174 35.7098 62.2592 35.6675 62.2116C35.6252 62.1641 35.5708 62.1289 35.51 62.11C35.4506 62.0902 35.3871 62.0863 35.3257 62.0986C35.2643 62.1108 35.2072 62.1389 35.16 62.18C35.0242 62.3089 34.9243 62.4708 34.87 62.65V62.65ZM34.56 62.56C34.6203 62.389 34.7044 62.2274 34.81 62.08C34.877 61.9879 34.958 61.907 35.05 61.84C35.1215 61.787 35.2032 61.7496 35.29 61.73C35.455 61.702 35.6245 61.7368 35.7651 61.8274C35.9058 61.9181 36.0074 62.0582 36.05 62.22C36.1096 62.4983 36.0816 62.7882 35.97 63.05C35.8861 63.3194 35.7264 63.5589 35.51 63.74C35.425 63.8068 35.3245 63.851 35.2179 63.8685C35.1112 63.886 35.0019 63.8762 34.9 63.84C34.7985 63.7993 34.7078 63.7357 34.635 63.6541C34.5621 63.5726 34.5091 63.4754 34.48 63.37C34.4259 63.098 34.4537 62.8161 34.56 62.56V62.56ZM36.73 64.28L37.06 62.54L36.62 62.46L36.68 62.11L37.88 62.34L37.81 62.69L37.36 62.6L37 64.33L36.73 64.28ZM38.28 64.54L38.45 62.42L39.59 62.51V62.87L38.76 62.8V63.27L39.53 63.33V63.69L38.77 63.63L38.72 64.2L39.58 64.27V64.63L38.28 64.54ZM40.17 63.87L40.47 63.82C40.4833 63.9318 40.5246 64.0384 40.59 64.13C40.6198 64.1604 40.6557 64.1842 40.6953 64.1998C40.735 64.2153 40.7775 64.2222 40.82 64.22C40.8598 64.2201 40.8992 64.212 40.9358 64.1962C40.9724 64.1804 41.0053 64.1572 41.0325 64.1281C41.0597 64.099 41.0806 64.0646 41.0939 64.0271C41.1073 63.9896 41.1128 63.9497 41.11 63.91C41.1262 63.8682 41.1262 63.8218 41.11 63.78C41.0818 63.7433 41.0436 63.7155 41 63.7L40.75 63.61C40.6122 63.5821 40.4864 63.5123 40.39 63.41C40.2892 63.293 40.2326 63.1444 40.23 62.99C40.2313 62.888 40.2481 62.7869 40.28 62.69C40.3211 62.6001 40.387 62.5238 40.47 62.47C40.5594 62.4121 40.6635 62.3808 40.77 62.38C40.8505 62.374 40.9313 62.3851 41.0072 62.4127C41.083 62.4403 41.1522 62.4837 41.21 62.54C41.3195 62.6683 41.3798 62.8313 41.38 63H41C40.9802 62.915 40.9464 62.8339 40.9 62.76C40.8421 62.7185 40.7706 62.7006 40.7 62.71C40.6612 62.706 40.622 62.7112 40.5855 62.7251C40.549 62.739 40.5163 62.7612 40.49 62.79C40.474 62.8353 40.474 62.8847 40.49 62.93C40.4783 62.9691 40.4783 63.0108 40.49 63.05C40.5785 63.1161 40.6813 63.1606 40.79 63.18C40.9088 63.212 41.0231 63.2591 41.13 63.32C41.2075 63.3728 41.2696 63.4453 41.31 63.53C41.3519 63.6352 41.3755 63.7468 41.38 63.86C41.3861 63.9797 41.3656 64.0992 41.32 64.21C41.2849 64.3118 41.2138 64.3971 41.12 64.45C41.0227 64.5149 40.9069 64.5465 40.79 64.54C40.7068 64.5509 40.6222 64.541 40.5437 64.5114C40.4652 64.4817 40.3952 64.4332 40.34 64.37C40.2346 64.2241 40.1754 64.0499 40.17 63.87ZM42.56 64.32L42.24 62.58L41.79 62.66L41.72 62.31L42.92 62.08L42.99 62.44L42.54 62.53L42.87 64.26L42.56 64.32ZM44.36 63L43.96 62.3V63.11L44.36 63ZM45.12 63.68L44.79 63.76L44.54 63.32L43.95 63.48V63.98L43.63 64.06V61.86L43.96 61.77L45.12 63.68ZM45.41 62.89L45.66 62.72C45.7178 62.8134 45.7966 62.8921 45.89 62.95C45.9294 62.9673 45.972 62.9763 46.015 62.9763C46.058 62.9763 46.1006 62.9673 46.14 62.95C46.1789 62.9376 46.2141 62.9155 46.2421 62.8857C46.2701 62.856 46.29 62.8196 46.3 62.78C46.3149 62.7452 46.3225 62.7078 46.3225 62.67C46.3225 62.6322 46.3149 62.5948 46.3 62.56C46.2778 62.5233 46.2509 62.4897 46.22 62.46C46.1711 62.4452 46.1189 62.4452 46.07 62.46H45.8C45.6695 62.4989 45.5305 62.4989 45.4 62.46C45.2593 62.3922 45.1489 62.2746 45.09 62.13C45.0424 62.0368 45.0152 61.9345 45.01 61.83C45.0056 61.7336 45.0338 61.6385 45.09 61.56C45.1509 61.4733 45.2337 61.4043 45.33 61.36C45.4031 61.3238 45.4835 61.305 45.565 61.305C45.6465 61.305 45.7269 61.3238 45.8 61.36C45.9506 61.4335 46.0709 61.5573 46.14 61.71L45.87 61.86C45.8295 61.7857 45.7665 61.7262 45.69 61.69C45.6568 61.676 45.6211 61.6687 45.585 61.6687C45.5489 61.6687 45.5132 61.676 45.48 61.69C45.4084 61.7213 45.3513 61.7784 45.32 61.85C45.3055 61.8955 45.3055 61.9444 45.32 61.99C45.3285 62.0129 45.3419 62.0336 45.3591 62.0509C45.3764 62.0681 45.3971 62.0815 45.42 62.09C45.5222 62.1113 45.6278 62.1113 45.73 62.09C45.8526 62.0705 45.9774 62.0705 46.1 62.09C46.1925 62.1071 46.2788 62.1485 46.35 62.21C46.4367 62.2873 46.505 62.3829 46.55 62.49C46.6042 62.5955 46.6349 62.7115 46.64 62.83C46.646 62.9374 46.6142 63.0436 46.55 63.13C46.4806 63.2255 46.3876 63.3013 46.28 63.35C46.2046 63.3842 46.1228 63.402 46.04 63.402C45.9572 63.402 45.8754 63.3842 45.8 63.35C45.6192 63.23 45.4823 63.0545 45.41 62.85V62.89Z" fill="white"/>
<path d="M39.26 76.88C29.864 76.9419 20.6046 74.6304 12.34 70.16V84.64C29.6239 91.5196 48.8861 91.5196 66.17 84.64V70.16C57.909 74.6304 48.6528 76.9419 39.26 76.88V76.88Z" stroke="black" stroke-width="0.87" stroke-linejoin="round"/>
<path fill-rule="evenodd" clip-rule="evenodd" d="M39.26 75.88C29.864 75.9419 20.6046 73.6304 12.34 69.16V83.64C29.6239 90.5196 48.8861 90.5196 66.17 83.64V69.16C57.909 73.6304 48.6528 75.9419 39.26 75.88" fill="#BDA250"/>
<path fill-rule="evenodd" clip-rule="evenodd" d="M49 77.15L51.54 76.6L52.89 82.81L56.89 81.95L57.32 83.95L50.8 85.36L49 77.15ZM44.63 77.71L47.22 77.39L48.22 85.75L45.63 86.07L44.63 77.71ZM34.78 78.09H37.5L39.5 84.09L41.25 78H43.89L40.89 86.47H38.07L34.78 78.09ZM31.35 77.62L33.96 77.85L33.19 86.25L30.57 86L31.35 77.62ZM27 82.06L29.09 83.21C28.8344 83.7542 28.4623 84.2356 28 84.62C27.6035 84.9731 27.1204 85.2146 26.6 85.32C25.9717 85.4238 25.3289 85.4 24.71 85.25C23.952 85.1111 23.2305 84.8185 22.59 84.39C22.0449 83.9515 21.6385 83.3645 21.42 82.7C21.1396 81.843 21.1084 80.924 21.33 80.05C21.4168 79.4716 21.6181 78.9164 21.922 78.4168C22.2259 77.9171 22.6264 77.4831 23.1 77.14C23.5939 76.848 24.1415 76.6586 24.7102 76.583C25.2789 76.5074 25.857 76.5472 26.41 76.7C27.2833 76.8417 28.0926 77.2464 28.73 77.86C29.2609 78.484 29.5765 79.2625 29.63 80.08H27.32C27.3139 79.8737 27.2698 79.6703 27.19 79.48C27.0942 79.2639 26.9506 79.0724 26.77 78.92C26.457 78.6844 26.0712 78.5664 25.68 78.5865C25.2888 78.6066 24.9172 78.7636 24.63 79.03C24.2538 79.4655 24.0108 80.0001 23.93 80.57C23.7127 81.2189 23.7127 81.921 23.93 82.57C24.0396 82.7663 24.1933 82.9344 24.379 83.0611C24.5647 83.1878 24.7773 83.2696 25 83.3C25.1988 83.3597 25.4082 83.3754 25.6137 83.3461C25.8192 83.3167 26.0159 83.243 26.19 83.13C26.547 82.8484 26.8259 82.48 27 82.06V82.06Z" fill="black"/>
</svg>
